/* XPM */
static char *background[] = {
/* columns rows colors chars-per-pixel */
"64 64 116 2 ",
"   c #676767",
".  c #686868",
"X  c #696969",
"o  c #6A6A6A",
"O  c #6B6B6B",
"+  c #6C6C6C",
"@  c #6D6D6D",
"#  c #6E6E6E",
"$  c #6F6F6F",
"%  c #707070",
"&  c #717171",
"*  c #727272",
"=  c #737373",
"-  c #747474",
";  c #757575",
":  c #767676",
">  c #777777",
",  c #787878",
"<  c #797979",
"1  c #7A7A7A",
"2  c #7B7B7B",
"3  c #7C7C7C",
"4  c #7D7D7D",
"5  c #7E7E7E",
"6  c #7F7F7F",
"7  c #808080",
"8  c #818181",
"9  c #828282",
"0  c #838383",
"q  c #848484",
"w  c #858585",
"e  c #868686",
"r  c #878787",
"t  c #888888",
"y  c #898989",
"u  c #8A8A8A",
"i  c #8B8B8B",
"p  c #8C8C8C",
"a  c #8D8D8D",
"s  c #8E8E8E",
"d  c #8F8F8F",
"f  c #909090",
"g  c #919191",
"h  c #929292",
"j  c #939393",
"k  c #949494",
"l  c #959595",
"z  c #969696",
"x  c #979797",
"c  c #989898",
"v  c #999999",
"b  c #9A9A9A",
"n  c #9B9B9B",
"m  c #9C9C9C",
"M  c #9D9D9D",
"N  c #9E9E9E",
"B  c #9F9F9F",
"V  c #A0A0A0",
"C  c #A1A1A1",
"Z  c #A2A2A2",
"A  c #A3A3A3",
"S  c #A4A4A4",
"D  c #A5A5A5",
"F  c #A6A6A6",
"G  c #A7A7A7",
"H  c #A8A8A8",
"J  c #A9A9A9",
"K  c #AAAAAA",
"L  c #ABABAB",
"P  c #ACACAC",
"I  c #ADADAD",
"U  c #AEAEAE",
"Y  c #AFAFAF",
"T  c #B0B0B0",
"R  c #B1B1B1",
"E  c #B2B2B2",
"W  c #B3B3B3",
"Q  c #B4B4B4",
"!  c #B5B5B5",
"~  c #B6B6B6",
"^  c #B7B7B7",
"/  c #B8B8B8",
"(  c #B9B9B9",
")  c #BABABA",
"_  c #BBBBBB",
"`  c #BCBCBC",
"'  c #BDBDBD",
"]  c #BEBEBE",
"[  c #BFBFBF",
"{  c #C0C0C0",
"}  c #C1C1C1",
"|  c #C2C2C2",
" . c #C4C4C4",
".. c #C5C5C5",
"X. c #C6C6C6",
"o. c #C7C7C7",
"O. c #C8C8C8",
"+. c #C9C9C9",
"@. c #CACACA",
"#. c #CBCBCB",
"$. c #CCCCCC",
"%. c #CDCDCD",
"&. c #CECECE",
"*. c #CFCFCF",
"=. c #D0D0D0",
"-. c #D1D1D1",
";. c #D2D2D2",
":. c #D3D3D3",
">. c #D4D4D4",
",. c #D5D5D5",
"<. c #D6D6D6",
"1. c #D7D7D7",
"2. c #D8D8D8",
"3. c #D9D9D9",
"4. c #DADADA",
"5. c #DBDBDB",
/* pixels */
"3.3.3.1.;.;.;.;.3.3.3.1.;.;.;.&.! T T ! 1.3.3.1.;.;.;.;.;.;.;.;.;.;.;.;.;.;.;.;.;.;.;.;.3.3.3.3.;.;.;.&.| ] ] ] Y Y Y D r 9 9 9 ",
"3.3.3.3.;.;.;.;.3.3.3.3.;.;.;.&.T Y Y ! 1.3.3.3.;.;.;.;.;.;.;.;.;.;.;.;.;.;.;.;.;.;.;.;.3.3.3.3.;.;.;.&.| ] ] / Y H H D r 5 9 9 ",
"3.3.3.3.;.;.;.;.3.3.3.3.;.;.;.&.! T Y ! 1.3.3.3.;.;.;.;.;.;.;.;.;.;.;.;.;.;.;.;.;.;.;.;.3.3.3.3.;.;.;.&.| ] ] / Y H Y D r 9 9 9 ",
"3.3.3.1.&.&.&.&.;.1.1.;.&.&.&.#.T Y Y T &.1.1.;.&.&.&.&.&.&.&.&.#.#.&.&.&.&.&.&.&.&.&.&.;.;.;.;.&.&.&.#.] / ] / Y H H D r 9 9 9 ",
"3.3.3.1./ ! ! ! ! ! ! ! ! ! ! T D C C D T ! ! ! ! ! ! ! ! ! ! T H D D H Y T Y T Y Y T Y H H H H Y T T T Y Y Y Y C C C N s i i i ",
"3.3.3.;.! Y T T T T Y Y T T T Y C C C C Y T T T T T T T Y Y T Y C C C C H H H H H H H H C C C C H Y Y H H H H H C C C N s s s s ",
"3.3.3.1.! T T T T T T T T T T Y C C C C Y T T T T T T T T T T Y C C C C H H H H H H H H C C C C H Y H H H H H H C C C N s s s s ",
"3.3.3.;.T Y Y Y Y Y Y Y Y Y Y Y D C C D Y Y Y Y T T Y Y Y Y Y Y D C C D Y Y Y Y H H H H D C C D H Y H H H H H H N N N n i r i i ",
";.;.;.&.H C C C C C C C C C C D Y Y Y Y D C C D H Y Y Y Y Y Y Y H H H Y / ] ] / Y Y H H H H H H Y H H H C C C C h s s i % + + + ",
";.;.;.#.D C C C C C C C C C C C Y T T Y C C C C H H H H H Y Y Y H H H Y ] ] ] ] Y H H H H Y Y Y Y H H H C C C N s s s r +   . . ",
";.;.;.#.D C C C C C C C C C C C Y T T Y C C C C H H H H H H Y H H H H Y ] ] ] ] Y Y H H H H Y Y H H H H C C C N s s s r + . . . ",
";.;.;.&.D N N N C C C C D D D D Y T T Y D C C D H H H H H H H H H H H Y / ] / / Y H H H H H Y Y H H H H D D D C h s s i + . . . ",
"3.3.3.&.x s s h H Y Y T / / / / T T T T Y Y Y Y D C C C C C C C C C C C D D D D C C C D H H H Y H Y H Y / / / ! n x x h +   . . ",
"3.3.3.&.x i i h Y T T T ] ] ] ] T T T T T T T Y C C C C C C C C C C C C C C C C C C C C H H H H Y Y H Y ] ] ] / N n n h +   . . ",
"3.3.3.&.x i s h Y T T T ] ] ] ] T T T T T T T Y C C C C C C C C C C C C C C C C C C C C H H H H Y Y Y Y ] ] ] / N n n h +   . . ",
"3.3.3.;.x s s h H Y Y T / / / / Y Y Y Y Y Y Y Y D C C C C C D D C C C C C C C C C C C C D D D H H Y H Y ] ] ] / N n n h +   . . ",
"3.3.3.;.D N N N C C C C C C C C C C C C C C C C Y Y Y Y Y Y Y Y Y Y Y Y Y Y Y Y Y Y Y H h s s h H H H Y ] ] ] / C C C n + . . . ",
"3.3.3.;.D N N N N N N N N N N N N N N N N N N C Y T T T T T T T T T T T T T T T T T T H h i i h H H H Y ] ] ] / D C C n + . . . ",
"3.3.3.;.D N N N N N N N N N N N N N N N N N N C Y T T T T T T T T T T T T T T T T T T H h i i h H Y H Y ] ] ] / D C C n + . . . ",
"3.3.3.;.H C C C C C C C C C C C C C C C N N N N Y T Y Y Y Y Y Y Y Y Y Y Y Y Y Y Y Y Y H x h h h D H H Y / / / ! C N N x + . . . ",
"3.3.3.1.T Y Y Y Y Y Y Y Y Y Y T / / / ! x s s h H Y Y Y H Y Y H D C C C C C C C n n n N H Y Y H C C C C D D D C h s s i + . . . ",
"3.3.3.1.! T T T T T T T T T T T ] ] ] / h s i h H Y Y H H H H H C C C C C C C N n x x n Y T T Y C C C C C C C N s i s r + . . . ",
"3.3.3.1.! T T T T T T T T T T T ] ] ] / h s s h H H H H Y Y H H C C C C C C C N n x x n Y T T Y C C C C C C C N s s s r + . . . ",
"3.3.3.;.T Y Y Y T T T T Y Y Y Y ! / / T h s s h D D D H H D D D C C C C C N N N n x x n D H H H C N N N D D D C h s s i + . . . ",
";.;.;.&.H C C D Y T T Y D C C C h h h h s s s s h h s s s s s h x n n n x x n n x x x x i r r r s s s x ! / / ! C N N x + . . . ",
";.;.;.#.D C C C Y T T Y C C C N s i i i s s s s s s s s i i i s x x x x x x x x x x x x 9 9 9 9 i s i h / ] ] / D C C n + . . . ",
";.;.;.&.D C C C Y T T Y C C C N s s s s s s s s s s s s s s s s x n n n x x x x x x x x 9 9 9 9 i s s h / ] ] / D C C n + . . . ",
"| |  .] N n n n D D D D n n n x i r r r r r i i r r r r r r r i h h h h h h h h h h h h 9 5 5 9 r i r s Y T T T N n n h + . . . ",
"- - - - % + + + % % % % + + + + + + + + + + + + + + + + + + + + + + + + + + + + - , , , - - - - + + + + % % % % + + + + . . . . ",
".     . . . . . . . . . . . . .     . . . . . . . . . . . .     . . . . . . . . % - - - - - - - . . . . . . . . . . . . . . . . ",
".   . .         .                                       . . . .               . % - - - - - - % .     .     . .                 ",
", - - - - - - - - - - - - - - - - - - - - - - - - - - - . . . . - - - - - - - - 9 9 9 9 9 9 9 9 , - - - - - - - - - - - - - - - ",
" . . . . . . . . . . . . . . . .&.&.&.&.&.&.&.#. . . ./ % .   - | &.&.&. . . . . . . .#.&.&.&.&.&.&.&.#. . . . .&.&.&.#. . . . .",
";.;.;.;.;.;.;.;.;.;.;.;.;.;.;.;.3.3.3.3.3.3.3.3.;.;.;. .-     - &.3.3.3.;.;.;.;.;.;.;.;.3.3.3.3.3.3.3.3.;.;.;.;.3.3.3.3.;.;.;.;.",
";.;.;.;.;.;.;.;.;.;.;.;.;.;.;.;.3.3.3.3.3.3.3.3.;.;.;. .-     - &.3.3.3.;.;.;.;.;.;.;.;.3.3.3.3.3.3.3.3.;.;.;.;.3.3.3.3.;.;.;.;.",
"#.#.#.#.#.#.#.#.&.&.&.&.#.#.#.#.;.;.;.;.;.1.1.;.#.#.#.] %     - #.3.3.1.&.&.&.&.#.#.#.&.;.;.;.;.&.&.&.&.#.#.#.#.&.&.&.&.#.#.#.#.",
"D D D D D D D H T ! ! T n x x x D D D H T ! ! T n x x s +     -  .;.;.&.! ! ! T H D D D D D D D x x x x x x x x x x x x h h h x ",
"C C C C C C C C Y T T H h i i s N C C C Y T T H h i i r +     -  .;.;.&.T T T Y C C C C C C C N s i i i s s s i i i i i i i i i ",
"C C C C C C C C Y T T H h i i s N C C C Y T T Y h i s r +     -  .;.;.&.! T T Y C C C C C C C N s i i i s i s s s s s s i i i s ",
"D D D D D D D D Y Y Y H s i i s N C C C T T T Y h s s i +     - | &.&.#.T Y Y Y C C C C C C C N h s s s h h h h s s s s i i s s ",
"/ / / / / / / / D C C C s s s s N C C D / ] ] / n x x h + . . % T ] ] / D C C C C C C C C C C C N N N C H Y Y H s s s i i i s s ",
"] ] ] ] ] ] ] / D C C N s s s s N C C D / ] ] / N x n h + . . % T / / ! D C C C C C C C C C C C C C C C Y T T H h s s i i s s s ",
"] ] ] ] ] ] ] / D C C N s i i s N C C D / ] ] / N x n h + .   % T / / ! D C C C C C C C C C C C C C C C Y T T H h i i i i i s s ",
"] ] ] ] ] ] ] / D C C C x h h x C D D H / / / ! n x x h + . . % ! ] ] / H D D D C N N N N N N N C C C C Y Y Y H h s s s s i s s ",
"T T T T T T T T Y Y Y Y ! / / / / / / / D D D C s s s i + . . - #.1.1.;.] / / ! h s s s s s s h N C C C C C C C N N N N s s s s ",
"T T T T T T T T T T T T ] ] ] ] ] ] ] / D C C N s i s r + .   - &.3.3.1.| ] ] / h i i s s s s s N C C C C C C C C C C N s i s s ",
"T T T T T T T T T T T T ] ] ] ] ] ] ] / D C C N s s s r + .   - &.3.3.1.| ] ] / h i i s s s s s N C C C C C C C C C C N s i i i ",
"Y Y Y Y Y Y Y Y Y Y Y T ] ] ] ] ] ] ] / D C C N s i i r + . . - #.1.1.;./ ! ! T h s s s s s s h N N N N N N N N N N N N s i i i ",
"D C C C C C C C C C C D / ] ] ] ] ] ] / D C C N r 9 9 5 . .   % ! ] ] / x h h h N N N N N N N N h s s s s s s s s s s s s s i i ",
"C C C C C C C C C C C D / ] ] ] ] ] ] / D C C N r 9 9 5 . .   % T / / ! h s s s N C C C C C C N s s s s s s i s s s s i s s i s ",
"C C C C C C C C C C C D / ] ] ] ] ] ] / D C C N r 9 9 5 .     % T / / ! h i i s N C C C C C C N s s s s s s s s s s s s s s s s ",
"D C C C D C C C C C C D ! / / / / / / ! C N N n 9 5 5 5 .     % ! ] ] / n h h x C D D D C C C N h s s s s i i s s s s s i i i i ",
"Y Y Y Y Y Y Y Y C C C C C D D D D C D C h s s i , - - - . .   - #.1.1.;.] / / / / / / / D C C C N N N N s s i s N N N n r 9 9 9 ",
"T T T T T T T Y C C C C C C C C C C C N s s s i , - - - . .   - &.3.3.1.| ] ] ] ] ] ] / D C C C C C C N s i i s N C C N 9 5 5 5 ",
"T T T T T T T Y C C C C C C C C C C C N s s s i - - - % . .   - &.3.3.1.| ] ] ] ] ] ] / D C C C C C C N s i i s N C C N 9 5 9 9 ",
"Y H Y Y Y Y Y H C N N N N N N N N N N n s s s i 5 , 5 , . .   - #.1.1.;./ ! ! ! / / / ! C N N N N N N n s i i s n N N n 9 5 9 9 ",
"x h h h x h h h h h h h x n n x r 9 9 r i s s s n N N x + . . % ! ] ] ! s r r i C D D C h s s s s s s s i i i i r 9 9 9 9 9 9 9 ",
"h h h h h h h h s s s h x x x x 9 9 9 9 i s s s N C C n + . . % T / / T r 5 5 r N C C N s s s s i i i i i i i i 9 5 5 5 9 9 9 9 ",
"h h h h h h h h h h h h x x n x 9 9 9 9 i s s s N C C n + .   % T / / T r 9 9 r N C C N s s s s i i i i i i i i 9 9 9 9 9 9 9 9 ",
"i i i i i i i i i i i i h h h s 5 5 5 5 r r r i x n n h + . . % D Y Y H 9 5 5 9 x n n n i r r r r r r r r r r r 5 5 5 5 5 5 5 5 ",
"+ + + + + + + + + + + + + + + + . . . . + + + + + + + + . . . . % % % % . . . + , , , , + + + + . . . . + . + + . . . . . . . . ",
".   . . . . . .   .     . . . . . . . . . . . .     . . . . . . . . . . . . . . % - - % . . . .     . . . . . . . . . . . . . . ",
". . . . . . . . . . . . . . . . . . . . . . . . . . . . . . . . . . . . . . . . % - - % . . . . . . . . . . . . . . . . . . . . ",
".   . . . . . . . . . . . . . . . . . . . . . . . . . . . . . . . . . . . . . . % - - % . . . . . . . . . . . . . . . . . . . . "
};
