/* XPM */
static char *exit[] = {
/* columns rows colors chars-per-pixel */
"64 64 87 1 ",
"  c #040404",
". c #0C0E0B",
"X c #051405",
"o c #071A07",
"O c #0D160C",
"+ c #0C1A0C",
"@ c #10110F",
"# c #101B0F",
"$ c #141413",
"% c #181717",
"& c #131C13",
"* c #191917",
"= c #1C1C1B",
"- c #201F1F",
"; c #0A220A",
": c #0C2C0C",
"> c #0E350E",
", c #0F380F",
"< c #152115",
"1 c #182617",
"2 c #182817",
"3 c #1E221C",
"4 c #1F281E",
"5 c #133413",
"6 c #113811",
"7 c #20221F",
"8 c #242423",
"9 c #282727",
"0 c #272925",
"q c #292827",
"w c #2C2B2B",
"e c #302F2E",
"r c #263925",
"t c #2D312B",
"y c #2D3A2C",
"u c #31302F",
"i c #313B2F",
"p c #343332",
"a c #383736",
"s c #353C33",
"d c #393837",
"f c #3D3B3A",
"g c #403F3D",
"h c #41403F",
"j c #454342",
"k c #484745",
"l c #4D4B4A",
"z c #504F4D",
"x c #52504F",
"c c #555352",
"v c #585755",
"b c #5A5857",
"n c #5D5C5A",
"m c #605E5D",
"M c #62615F",
"N c #636160",
"B c #646361",
"V c #656462",
"C c #676563",
"Z c #696766",
"A c #6A6866",
"S c #6B6A68",
"D c #6D6B69",
"F c #6E6C6A",
"G c #6F6D6C",
"H c #716F6D",
"J c #71706E",
"K c #737170",
"L c #747371",
"P c #757472",
"I c #777574",
"U c #787675",
"Y c #797876",
"T c #7B7978",
"R c #7D7B7A",
"E c #7E7C7B",
"W c #7F7E7C",
"Q c #807E7D",
"! c #82817F",
"~ c #838180",
"^ c #848381",
"/ c #858582",
"( c #888785",
") c #8A8987",
"_ c #8D8D8A",
"` c #8F8E8D",
"' c #908F8D",
/* pixels */
",,,,,,,,,,,,,,,,,,,,,,,,,,,,,,,,,,,,,,,,,,,,,,,,,,,,,,,,,,,,,,,,",
",,,,,,,,,,,,,,,,,,,,,,,,,,,,,,,,,,,,,,,,,,,,,,,,,,,,,,,,,,,,,,,,",
",,,,,,,,,,,,,,,,,,,,,,,,o*ppuppppdggddp*o,,,,,,,,,,,,,,,,,,,,,,,",
",,,,,,,,,,,,,,,,,,,;&80wpgznMADHPUPJHBldw008<,,,,,,,,,,,,,,,,,,,",
",,,,,,,,,,,,,,,,,+*=ujcmBALW^))QQ)'`_/JBnclgw*;,,,,,,,,,,,,,,,,,",
",,,,,,,,,,,,,,,>X=fjjvDLPUTRE~TbjcU~EQ~!EGmzjgu<:,,,,,,,,,,,,,,,",
",,,,,,,,,,,,,,+0ahcVHKHDAANckmDf%qklkcBSAAFJFnju03+,,,,,,,,,,,,,",
",,,,,,,,,,,,&7wgcmKTIFnzkjfw8jnq =ga-0pdgznFPUSvjp8&>,,,,,,,,,,,",
",,,,,,,,,,,+wjcnZPUKmlfpwwwq8pzh0wgw%=809pflmLTPVcjp7;,,,,,,,,,,",
",,,,,,,,,,+0gvFIYHnldewwwwppwwkVNlfq8qwwwwwwajnHYPSvf7;,,,,,,,,,",
",,,,,,,,,+0jMLTGmkdpupaaaape9wkncfaq9upaaapw88ekmHTLnf7+,,,,,,,,",
",,,,,,,,&qkmFHDnjw0wpadaapppplmj0avxgdapaaae8==0hnJPJnh8+,,,,,,,",
",,,,,,,&wlVFnbnvd08wdffdgjjlbJYcfcIPMclgdffaw8=8fnNnMDBkq+,,,,,,",
",,,,,,&tlVJnhfznkaudjklzvmVFLYE!EYRRUJMczzljfpudzMcjjnLSlw+,,,,,",
",,,,,&wjBFNjq8avVmbnmVDJPJNcclbEEnccvvvnAJDVMnnVAca8qhnHSlw&,,,,",
",,,,&qgbJNjw==qjFEPSDFFAMcgppwfKUkwuaadjxNHRYZAFMf8==qjMLVlw&,,,",
",,,,0dcFDlpq00qdAYZxcnvkdpq0q8aJYj80pe98ejBUDklnxp08-=wlFImg8,,,",
",,,+wlAYbd0wppwaNAk0allp89www0dKYj8qdaw88anDl-wjkpwew--pbIHlq+,,",
",,:wfMEHgq9pfaudNDlwjncp8wuew0aJYj80papw9anDcwjvcauadq-8fFWBa8:,",
",,#dlLEnw8wdgaakFPMkcZnfqqwwwqfPPj9880qq9fVHmlnHVkaadp0=wbWHje&,",
",;7jbYLj88pffafbJDvllvvjupafhkm!Yvjfw889plNMcxbSJbdwadw-8jLUcd=>",
",3flZYBp=qdgapjmVlpwwpfffkvBAHT(~IHBxgpakclfapaxFZjqwaaq=pMRVjp1",
",qjlPIc0-effpaknlp00080axBDKJVbcccbMmnbvxjpqwwqfnDcpqpdw-8xUPka2",
",8jbWGh=8pdawakldqqppqqjBHVcjdajljaaglBZvhq0ppewjBBjqwau8=gGQzd5",
",0kD)Za=8papwfljw0pdduavZnlfawpnDlq0efzcckpqufawanAzqqpp8=aV)mj5",
",pzI)Mu%8epwpjld0qdfaplAndpxVlfVLj9fckppjckpwffpdnGcw0up0%em(Jlt",
"6fvTQvq=8wq0allp0qpfakNSl0pVEnjnBgpcBjqqfbbf0papfnLBd9wu9%qcWTvd",
"6fnQPh==700wkblw-8qwabJmd8qkbzjlkfhxj8-0aznj8=0wpxJYmfw87==hPQnf",
"6fn~Fd8qwpfjcncfupddjZLxwqpdklguqpllaqq8qjNvpqpfjcHWJnhwww8fD^ny",
"6dn~FxlccnmchcBnbMAJJQUl0fMFHmf=$qcccBvp8kGKnnAKPLUZcDZmvvxvD/nr",
",fn~JcvmnVVlqlVnbMVGJELk0kR/Ynp$ 0nmnHMa8lHLVDYQEUPzeBHZnbbmH~ni",
",fn^FfwddgllkMVjpppdkVDjqfvczkaq0fbxffd99lFBkjkllbDnkmcgpepjD~ns",
",fn~Da$==8pzL^Df=%%=pnFlp00wgjjxbckfq===qzDnp888qjDYJva8=%%aD^ns",
",fnEPl8%780dMWJj8=-8ecFnf80xZchlnlffd0%=plmlw8qqwlHYVf087%8lPQbs",
",fvYWnp=0uw0hVDjwepuqfnDl0pSPlwjvhwhla80hvzaqpfdfnFmf0qw9%unQTcy",
",dzJ~Na*8papfnZkweda9qlHmapllq8lBg8phwwacng9qdfdfNHcw9pp9%pM/Jky",
",ajnWSj=8pdffcVcuqaduwhVFvfpw=8lbd=-0wfznxw8wffdhVLcpeap0=jDQnjs",
"6tazKFl89pfgflmndqwpe0exFGnljapdfu80eflvvh8-wdffkVVkpadp8=lFLldp",
"68wkVHxq0pffdfcMkw0wq0pzVFFDDVnxljddhjkzcjw0wpdjvVlapffe-0xJVjw4",
",=wjvHMa8wffapjnvguupfcmcxvnVGPEPnkfaapfllkgffjcZMgwagdq=pmJbjq#",
",=udjAAj80pffadlvcljkbBcdwepfkbUJldwqqqqehbBMnMAAcdpffp88jAAjfp*",
",8pwpnFbp9udfppaznnzcVMjqqwepqaDJj87qppq0anYYDFJMjaafdp9pbFnpwa0",
",<88wlVAxfpuauqwlvldjbcaqpfgf0wDYj=-pfde9pvLAlcmcapdfppfzABkq7q<",
",>$8wdxADnfqqwqwklp*wlzdwwaffwaHYj80pauqwfnVj=wlzdpapwgbDAlaw=@:",
",,$80whnFVkw880ekla8dnBlfpupawaHRlqqpwqwdzFHl9azcfpqqukmFMjw00@,",
",,+&=qplZZvf0=8alljfvFJZvkhhjjlU~mjjjapjvAILnkznvjw8qfbADbfq==+,",
",,,;=qwdcBBxdqwjzjgjcmMZVnccnVDE^PABnzlvVAVmvzzcvcfwdcDFmlfw=X,,",
",,,,79wpjvBMzjlvku0wpaahlzlznFHZVHPDnclzlhaapeedzVnxcAKZlfff8,,,",
",,,,+=epajcnnvnvf8==0qqwuueugvvdqkHVjapapwqq0==qjMHJFKZbjddq+,,,",
",,,,,+7upahlnMMcjw-=8wpww0-=8djp0jBzw90qwpw98=-wjbJTUVcljd0+,,,,",
",,,,,,+8ppphcVVncjwqquaapw98=0ajxncd0qqwppw088ejcMLUAxkkjw+,,,,,",
",,,,,,,+0wwalmLPDvkjfppuppeq8qajvnlu89qqw90qpjznFYLVlhkjw+,,,,,,",
",,,,,,,,+8paflmZDBMnvlhapww8=0apufjw%=00qudjcMAADZmzjjhw+,,,,,,,",
",,,,,,,,,&qfgjkzcbnVFZnxkjdw8wp=.8fp89pfjlnVDFAmczkjfhq&,,,,,,,,",
",,,,,,,,,>&pjjggfflnFJHABNnclzk7 -jllcnNBAFJFmckjfgfdqO,,,,,,,,,",
",,,,,,,,,,,+wddfapajlbMBBFURRQKlplJTTRUFNnvvckfdddfdwO,,,,,,,,,,",
",,,,,,,,,,,,+*8auwpffjjjkcVLUPHHLE^~~YBczkjjjfddfa8*+,,,,,,,,,,,",
",,,,,,,,,,,,,:O3=8pddapepglcnnnDULFAZbjffapagffe83O>,,,,,,,,,,,,",
",,,,,,,,,,,,,,,:X$0qupuepdffjjklljkljgfdapwpfpq*X>,,,,,,,,,,,,,,",
",,,,,,,,,,,,,,,,,,X.0pwwppppdggjkjgjjfppfdadw.X,,,,,,,,,,,,,,,,,",
",,,,,,,,,,,,,,,,,,,,+@@@@8addjjjjjjjjfa0====&,,,,,,,,,,,,,,,,,,,",
",,,,,,,,,,,,,,,,,,,,,,,,oO888qwq00qw888$X:>,,,,,,,,,,,,,,,,,,,,,",
",,,,,,,,,,,,,,,,,,,,,,,,,,:;;oo;;;;;;:>,,,,,,,,,,,,,,,,,,,,,,,,,",
",,,,,,,,,,,,,,,,,,,,,,,,,,,,,,,,,,,,,,,,,,,,,,,,,,,,,,,,,,,,,,,,"
};
