/* XPM */
static char *player[] = {
/* columns rows colors chars-per-pixel */
"64 64 97 2 ",
"   c #010100",
".  c #020F02",
"X  c #170D01",
"o  c #051403",
"O  c #061A05",
"+  c #081E06",
"@  c #151402",
"#  c #1B1101",
"$  c #141C06",
"%  c #1D1F0B",
"&  c #341D01",
"*  c #062204",
"=  c #092207",
"-  c #0A2509",
";  c #0C2C0B",
":  c #162404",
">  c #142408",
",  c #1D200B",
"<  c #152A0B",
"1  c #0E340E",
"2  c #0F380F",
"3  c #10330D",
"4  c #13740F",
"5  c #1E7E0E",
"6  c #815A02",
"7  c #AB5E16",
"8  c #946205",
"9  c #9A6703",
"0  c #9B6803",
"q  c #9E7103",
"w  c #BE6C04",
"e  c #AA6F17",
"r  c #BF6C19",
"t  c #AE7018",
"y  c #B07218",
"u  c #C16D04",
"i  c #D67904",
"p  c #DA7B04",
"a  c #C56D19",
"s  c #C47B12",
"d  c #CC7F1B",
"f  c #D6781B",
"g  c #DC791C",
"h  c #887E5F",
"j  c #1F810E",
"k  c #168511",
"l  c #199613",
"z  c #1B9913",
"x  c #2E840F",
"c  c #218E0F",
"v  c #228F10",
"b  c #378D11",
"n  c #239210",
"m  c #269E12",
"M  c #339411",
"N  c #379C13",
"B  c #27A312",
"V  c #36A512",
"C  c #3AA012",
"Z  c #4C9310",
"A  c #519A14",
"S  c #46A711",
"D  c #95920C",
"F  c #9C9F0E",
"G  c #B3831A",
"H  c #90AF10",
"J  c #92B110",
"K  c #ADB10F",
"L  c #A9A710",
"P  c #ADAA10",
"I  c #A2B210",
"U  c #AFB210",
"Y  c #B3B510",
"T  c #C28D08",
"R  c #D68907",
"E  c #DB8B07",
"W  c #D28808",
"Q  c #EC8706",
"!  c #EF8803",
"~  c #EF8805",
"^  c #F38903",
"/  c #F38905",
"(  c #F58A05",
")  c #F78C07",
"_  c #EF921B",
"`  c #F1941C",
"'  c #F7971F",
"]  c #F7A33A",
"[  c #DECFBA",
"{  c #FADEB8",
"}  c #FCDFB9",
"|  c #FEE1BB",
" . c #DCDAD1",
".. c #E0DCD4",
"X. c #FBEAD3",
"o. c #FFEDD6",
"O. c FloralWhite",
/* pixels */
"2 2 2 2 2 2 2 2 2 2 2 2 2 2 2 2 2 2 2 2 2 2 2 2 2 2 2 2 2 2 2 2 2 2 2 2 2 2 2 2 2 2 2 2 2 2 2 2 2 2 2 2 2 2 2 2 2 2 2 2 2 2 2 2 ",
"2 2 2 2 2 2 2 2 2 2 2 2 2 2 2 2 2 2 2 2 2 2 2 2 2 2 2 2 2 2 2 2 2 2 2 2 2 2 2 2 2 2 2 2 2 2 2 2 2 2 2 2 2 2 2 2 2 2 2 2 2 2 2 2 ",
"2 2 2 2 2 2 2 2 2 2 2 2 2 2 2 2 2 2 2 2 2 2 2 2 2 2 2 2 2 2 2 2 2 2 2 2 2 2 2 2 2 2 2 2 2 2 2 2 2 2 2 2 2 2 2 2 2 2 2 2 2 2 2 2 ",
"2 2 2 2 2 2 2 2 2 2 2 2 2 2 2 2 2 2 2 2 2 2 2 2 2 2 2 2 2 2 2 2 2 2 2 2 2 2 2 2 2 2 2 2 2 2 2 2 2 2 2 2 2 2 2 2 2 2 2 2 2 2 2 2 ",
"2 2 2 2 2 2 2 2 2 2 2 2 2 2 2 2 2 2 2 2 2 2 2 2 2 2 2 2 2 2 2 2 2 2 2 2 2 2 2 2 2 2 2 2 2 2 2 2 2 2 2 2 2 2 2 2 2 2 2 2 2 2 2 2 ",
"2 2 2 2 2 2 2 2 2 2 2 2 2 2 2 2 2 2 2 2 2 2 2 2 2 2 2 2 2 2 2 2 2 2 2 2 2 2 2 2 2 2 2 2 2 2 2 2 2 2 2 2 2 2 2 2 2 2 2 2 2 2 2 2 ",
"2 2 2 2 2 2 2 2 2 2 2 2 2 2 2 2 2 2 2 2 2 2 2 2 2 2 2 2 2 2 2 2 2 2 2 2 2 2 2 2 2 2 2 2 2 2 2 2 2 2 2 2 2 2 2 2 2 2 2 2 2 2 2 2 ",
"2 2 2 2 2 2 2 2 2 2 2 2 2 2 2 2 2 2 2 2 2 2 2 2 2 2 2 2 2 2 2 2 2 2 2 2 2 2 2 2 2 2 2 2 2 2 2 2 2 2 2 2 2 2 2 2 2 2 2 2 2 2 2 2 ",
"2 2 2 2 2 2 2 2 2 2 2 2 2 2 2 2 2 2 2 2 2 2 2 2 2 2 2 2 2 2 2 2 2 2 2 2 2 2 2 2 2 2 2 2 2 2 2 2 2 2 2 2 2 2 2 2 2 2 2 2 2 2 2 2 ",
"2 2 2 2 2 2 2 2 2 2 2 2 2 2 2 2 2 2 2 2 2 2 2 2 2 2 2 2 2 ; = = + O O o o O + - 2 2 2 2 2 2 2 2 2 2 2 2 2 2 2 2 2 2 2 2 2 2 2 2 ",
"2 2 2 2 2 2 2 2 2 2 2 2 2 2 2 2 2 2 2 2 2 2 2 2 2 2 2 2 1 4 k k k k k k k k k k 4 2 2 2 2 2 2 2 2 2 2 2 2 2 2 2 2 2 2 2 2 2 2 2 ",
"2 2 2 2 2 2 2 2 2 2 2 2 2 2 2 2 2 2 2 2 2 2 2 2 2 2 2 - * k z l l l l l l l l z k * ; 2 2 2 2 2 2 2 2 2 2 2 2 2 2 2 2 2 2 2 2 2 ",
"2 2 2 2 2 2 2 2 2 2 2 2 2 2 2 2 2 2 2 2 2 2 2 2 2 2 2 4 k l l l l l l l l l l l l k 4 ; 2 2 2 2 2 2 2 2 2 2 2 2 2 2 2 2 2 2 2 2 ",
"2 2 2 2 2 2 2 2 2 2 2 2 2 2 2 2 2 2 2 2 2 2 2 2 2 - * k z l l l l l l l l l l l l z k * - 2 2 2 2 2 2 2 2 2 2 2 2 2 2 2 2 2 2 2 ",
"2 2 2 2 2 2 2 2 2 2 2 2 2 2 2 2 2 2 2 2 2 2 2 2 2 4 k l l l l l l l l l l l l l l l l k 4 2 2 2 2 2 2 2 2 2 2 2 2 2 2 2 2 2 2 2 ",
"2 2 2 2 2 2 2 2 2 2 2 2 2 2 2 2 2 2 2 2 2 2 2 2 ; x M M M M M M M M M M M M M M M M M M x ; 2 2 2 2 2 2 2 2 2 2 2 2 2 2 2 2 2 2 ",
"2 2 2 2 2 2 2 2 2 2 2 2 2 2 2 2 2 2 2 2 2 2 2 2 # s E E E E E E E E E E E E E E R E E E s < 2 2 2 2 2 2 2 2 2 2 2 2 2 2 2 2 2 2 ",
"2 2 2 2 2 2 2 2 2 2 2 2 2 2 2 2 2 2 2 2 2 2 2 @ & p ) ( ( ( ( ( ) ' ' ' ' ) ( / ( ( / ' E < 2 2 2 2 2 2 2 2 2 2 2 2 2 2 2 2 2 2 ",
"2 2 2 2 2 2 2 2 2 2 2 2 2 2 2 2 2 2 2 2 2 2 $ w p ^ ( / ( Q / ^ ' } o.o.} ' ^ ( ~ ^ ' { [ < 2 2 2 2 2 2 2 2 2 2 2 2 2 2 2 2 2 2 ",
"2 2 2 2 2 2 2 2 2 2 2 # # # # # # # # # # # & u p ! / ( Q ( ( ^ ' o.O.O.o.] ' / ( ` ] o...< 2 2 2 2 2 2 2 2 2 2 2 2 2 2 2 2 2 2 ",
"2 2 2 2 2 2 2 2 2 2 X w p p p p p p p p p p u & & p ( ( ( ( / ^ ' o.O.O.O.o.| ' ' } X.O. .< 2 2 2 2 2 2 2 2 2 2 2 2 2 2 2 2 2 2 ",
"2 2 2 2 2 2 2 2 2 X & u p p p p p p p ! ^ p u @ $ s E E E ^ ( ^ ' } o.o.o.o.| ' _ | o.o.[ < 2 2 2 2 2 2 2 2 2 2 2 2 2 2 2 2 2 2 ",
"2 2 2 2 2 2 2 2 # w u & # # # # # # & p p & X 2 - x M M Z E ( ( ) ' ' ' ' ' ' / ) ' ' ' E > 2 2 2 2 2 2 2 2 2 2 2 2 2 2 2 2 2 2 ",
"2 2 2 2 2 2 2 2 # u w X           X & u w X 2 2 2 4 k l M T E E E E E E E E E E E E E W s > 2 2 2 2 2 2 2 2 2 2 2 2 2 2 2 2 2 2 ",
"2 2 2 2 2 2 2 2 ; # #           X u u & X 2 2 2 2 ; * k z M M M M M M M M M M M M M M M x - 2 2 2 2 2 2 2 2 2 2 2 2 2 2 2 2 2 2 ",
"2 2 2 2 2 2 2 2 2 2 2 o   # # # & w w X 2 2 2 2 2 2 1 4 k l l l l k k k k k k k k l l k 4 - 2 2 2 2 2 2 2 2 2 2 2 2 2 2 2 2 2 2 ",
"2 2 2 2 2 2 2 2 2 2 2 ; # u p i u & X 2 2 2 2 2 2 2 2 2 * k z l k * . o o o o o * k k * o 2 2 2 2 2 2 2 2 2 2 2 2 2 2 2 2 2 2 2 ",
"2 2 2 2 2 2 2 2 2 2 2 2 # w p p w X 2 2 2 2 1 2 2 2 2 2 - 4 k l k * . o o o o . * 4 4 * o - 2 2 2 2 2 2 2 2 2 2 2 2 2 2 2 2 2 2 ",
"2 2 2 2 2 2 2 2 2 2 2 2 = # # # # 2 2 2 - 4 k k k k k k 4 * * k l k k k k k k k 4 * * 4 k k 4 ; 2 2 2 2 2 2 2 2 2 2 2 2 2 2 2 2 ",
"2 2 2 2 2 2 2 2 2 2 2 2 2 2 2 2 2 2 2 @ % x M z z z z z k * * 4 k k k k k k k k 4 * * k z M x % > 2 2 2 2 2 2 2 2 2 2 2 2 2 2 2 ",
"2 2 2 2 2 2 2 2 2 2 2 2 2 2 2 2 2 2 $ 7 r s G N B B B B m n j * . o o o o o o o * j c B N G s a 7 < 2 2 2 2 2 2 2 2 2 2 2 2 2 2 ",
"2 2 2 2 2 2 2 2 2 2 2 2 2 2 2 2 2 O % y d g d A N n n B B B n : @ @ @ @ @ @ @ @ : j n N A d g d y % ; 2 2 2 2 2 2 2 2 2 2 2 2 2 ",
"2 2 2 2 2 2 2 2 2 2 2 2 2 2 2 2 2 5 n N A d g d y % * n B B C F F F F F F F F F D : % y d g d A N n 5 2 2 2 2 2 2 2 2 2 2 2 2 2 ",
"2 2 2 2 2 2 2 2 2 2 2 2 2 2 2 2 1 v B B N y a a 7 $ ; v B V S I Y Y Y Y Y Y Y Y F @ X 7 a a y N B B n 1 2 2 2 2 2 2 2 2 2 2 2 2 ",
"2 2 2 2 2 2 2 2 2 2 2 2 2 2 2 2 2 v B B n % X # $ 2 1 c V J I Y Y Y Y Y Y Y Y Y F $ o X # X , n B B v ; 2 2 2 2 2 2 2 2 2 2 2 2 ",
"2 2 2 2 2 2 2 2 2 2 2 2 2 2 2 2 2 v B B n * . ; 2 2 2 v V I Y Y Y Y Y Y Y Y Y K F > 1 2 ; o * n B B v ; 2 2 2 2 2 2 2 2 2 2 2 2 ",
"2 2 2 2 2 2 2 2 2 2 2 2 2 2 2 2 2 v B B B n 5 1 2 2 1 v V I Y Y Y Y Y Y Y Y Y Y F $ 2 2 - 5 n B B B v - 2 2 2 2 2 2 2 2 2 2 2 2 ",
"2 2 2 2 2 2 2 2 2 2 2 2 2 2 2 2 2 v B B B B v 2 2 2 2 x C L P P P P P P P P P L D @ 1 2 ; v B B B B v - 2 2 2 2 2 2 2 2 2 2 2 2 ",
"2 2 2 2 2 2 2 2 2 2 2 2 2 2 2 2 2 v B B B B v 1 2 2 3 6 8 0 0 0 0 0 0 h h 0 0 0 6 X 2 2 1 v B B B B v - 2 2 2 2 2 2 2 2 2 2 2 2 ",
"2 2 2 2 2 2 2 2 2 2 2 2 2 2 2 2 2 5 v v v v 5 = 2 2 2 6 8 9 0 0 0 8 8 h h 8 8 9 6 X 2 2 2 5 v v v v 5 + 2 2 2 2 2 2 2 2 2 2 2 2 ",
"2 2 2 2 2 2 2 2 2 2 2 2 2 2 2 2 2 + o O O O = 2 2 2 2 x C P P P F 0 0 L P 9 0 P D @ 1 2 2 o o o o o o 2 2 2 2 2 2 2 2 2 2 2 2 2 ",
"2 2 2 2 2 2 2 2 2 2 2 2 2 2 2 2 2 2 2 2 2 2 2 2 2 - * n V J I Y P 0 q P P q q P F : o 2 2 2 2 2 2 2 2 2 2 2 2 2 2 2 2 2 2 2 2 2 ",
"2 2 2 2 2 2 2 2 2 2 2 2 2 2 2 2 2 2 2 2 2 2 2 2 2 5 n m B V S I U P P Y Y P P S N n 5 2 2 2 2 2 2 2 2 2 2 2 2 2 2 2 2 2 2 2 2 2 ",
"2 2 2 2 2 2 2 2 2 2 2 2 2 2 2 2 2 2 2 2 2 2 2 3 , b C B B B V J I F F I I I H V B N b , 3 2 2 2 2 2 2 2 2 2 2 2 2 2 2 2 2 2 2 2 ",
"2 2 2 2 2 2 2 2 2 2 2 2 2 2 2 2 2 2 2 2 2 2 3 7 a s G C B B B V M < 3 M V V V B C G s r 7 2 2 2 2 2 2 2 2 2 2 2 2 2 2 2 2 2 2 2 ",
"2 2 2 2 2 2 2 2 2 2 2 2 2 2 2 2 2 2 2 2 2 2 3 t d g d A N B B n 5 2 2 5 n m B N A d g d t 3 2 2 2 2 2 2 2 2 2 2 2 2 2 2 2 2 2 2 ",
"2 2 2 2 2 2 2 2 2 2 2 2 2 2 2 2 2 2 2 2 2 2 2 b A d g d G N n * 1 2 2 1 * n N G d f d A b 2 2 2 2 2 2 2 2 2 2 2 2 2 2 2 2 2 2 2 ",
"2 2 2 2 2 2 2 2 2 2 2 2 2 2 2 2 2 2 2 2 2 2 - n C G d g s b 5 - 2 2 2 2 1 5 b s g d G N n * 2 2 2 2 2 2 2 2 2 2 2 2 2 2 2 2 2 2 ",
"2 2 2 2 2 2 2 2 2 2 2 2 2 2 2 2 2 2 ; 5 v v n B B N A d a % + 2 2 2 2 2 2 + % a d A C B B n v v 5 - 2 2 2 2 2 2 2 2 2 2 2 2 2 2 ",
"2 2 2 2 2 2 2 2 2 2 2 2 2 2 2 1 ; 1 * n B B B B B B N G e X 2 2 2 2 2 2 2 2 @ t G C B B B B B B n * = ; 2 2 2 2 2 2 2 2 2 2 2 2 ",
"2 2 2 2 2 2 2 2 2 2 2 2 2 2 2 5 n v n B B B B B B B B C b o 2 2 2 2 2 2 2 2 ; b C B B B B B B B B n v n 5 ; 2 2 2 2 2 2 2 2 2 2 ",
"2 2 2 2 2 2 2 2 2 2 2 2 2 2 2 5 n n v v v v v v c v v n 5 o 2 2 2 2 2 2 2 2 1 5 n v v v v v v v v v n n 5 - 2 2 2 2 2 2 2 2 2 2 ",
"2 2 2 2 2 2 2 2 2 2 2 2 2 2 2 o o o o o o o o o o o o o O 2 2 2 2 2 2 2 2 2 2 O O o o o o o o o o o o o O 2 2 2 2 2 2 2 2 2 2 2 ",
"2 2 2 2 2 2 2 2 2 2 2 2 2 2 2 2 2 2 2 2 2 2 2 2 2 2 2 2 2 2 2 2 2 2 2 2 2 2 2 2 2 2 2 2 2 2 2 2 2 2 2 2 2 2 2 2 2 2 2 2 2 2 2 2 ",
"2 2 2 2 2 2 2 2 2 2 2 2 2 2 2 2 2 2 2 2 2 2 2 2 2 2 2 2 2 2 2 2 2 2 2 2 2 2 2 2 2 2 2 2 2 2 2 2 2 2 2 2 2 2 2 2 2 2 2 2 2 2 2 2 ",
"2 2 2 2 2 2 2 2 2 2 2 2 2 2 2 2 2 2 2 2 2 2 2 2 2 2 2 2 2 2 2 2 2 2 2 2 2 2 2 2 2 2 2 2 2 2 2 2 2 2 2 2 2 2 2 2 2 2 2 2 2 2 2 2 ",
"2 2 2 2 2 2 2 2 2 2 2 2 2 2 2 2 2 2 2 2 2 2 2 2 2 2 2 2 2 2 2 2 2 2 2 2 2 2 2 2 2 2 2 2 2 2 2 2 2 2 2 2 2 2 2 2 2 2 2 2 2 2 2 2 ",
"2 2 2 2 2 2 2 2 2 2 2 2 2 2 2 2 2 2 2 2 2 2 2 2 2 2 2 2 2 2 2 2 2 2 2 2 2 2 2 2 2 2 2 2 2 2 2 2 2 2 2 2 2 2 2 2 2 2 2 2 2 2 2 2 ",
"2 2 2 2 2 2 2 2 2 2 2 2 2 2 2 2 2 2 2 2 2 2 2 2 2 2 2 2 2 2 2 2 2 2 2 2 2 2 2 2 2 2 2 2 2 2 2 2 2 2 2 2 2 2 2 2 2 2 2 2 2 2 2 2 ",
"2 2 2 2 2 2 2 2 2 2 2 2 2 2 2 2 2 2 2 2 2 2 2 2 2 2 2 2 2 2 2 2 2 2 2 2 2 2 2 2 2 2 2 2 2 2 2 2 2 2 2 2 2 2 2 2 2 2 2 2 2 2 2 2 ",
"2 2 2 2 2 2 2 2 2 2 2 2 2 2 2 2 2 2 2 2 2 2 2 2 2 2 2 2 2 2 2 2 2 2 2 2 2 2 2 2 2 2 2 2 2 2 2 2 2 2 2 2 2 2 2 2 2 2 2 2 2 2 2 2 ",
"2 2 2 2 2 2 2 2 2 2 2 2 2 2 2 2 2 2 2 2 2 2 2 2 2 2 2 2 2 2 2 2 2 2 2 2 2 2 2 2 2 2 2 2 2 2 2 2 2 2 2 2 2 2 2 2 2 2 2 2 2 2 2 2 ",
"2 2 2 2 2 2 2 2 2 2 2 2 2 2 2 2 2 2 2 2 2 2 2 2 2 2 2 2 2 2 2 2 2 2 2 2 2 2 2 2 2 2 2 2 2 2 2 2 2 2 2 2 2 2 2 2 2 2 2 2 2 2 2 2 ",
"2 2 2 2 2 2 2 2 2 2 2 2 2 2 2 2 2 2 2 2 2 2 2 2 2 2 2 2 2 2 2 2 2 2 2 2 2 2 2 2 2 2 2 2 2 2 2 2 2 2 2 2 2 2 2 2 2 2 2 2 2 2 2 2 "
};
