/* XPM */
static char *wall[] = {
/* columns rows colors chars-per-pixel */
"64 64 162 2 ",
"   c #A7C6FF",
".  c #A9C7FE",
"X  c #A7C8FE",
"o  c #AAC9FF",
"O  c #B4CDF7",
"+  c #B1CBF9",
"@  c #B0CBF9",
"#  c #B2CAF9",
"$  c #B2CBF9",
"%  c #B2C9FB",
"&  c #B0CAFA",
"*  c #B1CAFA",
"=  c #B0CBFA",
"-  c #B1CBFA",
";  c #B1CAFB",
":  c #B1CBFB",
">  c #B2CBFA",
",  c #B2CAFB",
"<  c #B2CBFB",
"1  c #B3CBFB",
"2  c #B1CCF8",
"3  c #B0CCF9",
"4  c #B1CCF9",
"5  c #B1CDF9",
"6  c #B2CCF9",
"7  c #B0CEF8",
"8  c #B0CCFA",
"9  c #B1CCFA",
"0  c #B0CDFA",
"q  c #B1CDFA",
"w  c #B1CCFB",
"e  c #B2CCFA",
"r  c #B2CDFA",
"t  c #B2CCFB",
"y  c #B5CFF8",
"u  c #B7CFF8",
"i  c #B5CFFB",
"p  c #B0CBFC",
"a  c #B1CBFC",
"s  c #B0CAFD",
"d  c #B0CBFD",
"f  c #B1CBFD",
"g  c #B2CBFC",
"h  c #B2CBFD",
"j  c #B0CCFC",
"k  c #B1CCFC",
"l  c #B0CDFC",
"z  c #B1CDFC",
"x  c #B0CCFD",
"c  c #B2CCFC",
"v  c #B0CCFE",
"b  c #B1CCFE",
"n  c #B2CCFE",
"m  c #B1CCFB",
"M  c #B5D0F5",
"N  c #B4D0F7",
"B  c #B4D0F8",
"V  c #B4D5FD",
"C  c #B7D4FD",
"Z  c #B7D5FD",
"A  c #B6D6FD",
"S  c #B6D5FE",
"D  c #B7D5FE",
"F  c #B5D6FE",
"G  c #B6D6FE",
"H  c #B7D6FE",
"J  c #B6D7FE",
"K  c #B7D7FE",
"L  c #B7D7FF",
"P  c #B7D5FE",
"I  c #B8D3FE",
"U  c #B9D3FE",
"Y  c #B8D4FD",
"T  c #B8D5FD",
"R  c #BAD5FD",
"E  c #B9D7FD",
"W  c #B8D4FE",
"Q  c #B9D4FE",
"!  c #B8D5FE",
"~  c #B9D5FE",
"^  c #BAD4FE",
"/  c #BAD5FE",
"(  c #BAD5FF",
")  c #B8D6FE",
"_  c #B9D6FE",
"`  c #B8D7FE",
"'  c #B9D7FE",
"]  c #B9D6FF",
"[  c #BAD6FE",
"{  c #BAD7FE",
"}  c #BBD7FE",
"|  c #BAD6FF",
" . c #BAD7FF",
".. c #BBD7FF",
"X. c #BDD6FF",
"o. c #BCD7FF",
"O. c #B9D6FE",
"+. c #B6D8FE",
"@. c #B7D8FE",
"#. c #B8D8FF",
"$. c #B9D8FF",
"%. c #B8D9FF",
"&. c #B9D9FF",
"*. c #BBD8FE",
"=. c #BAD8FF",
"-. c #BAD8FE",
";. c #F0F6F7",
":. c #F1F7F8",
">. c #F1F6F9",
",. c #F0F7F9",
"<. c #F1F7F9",
"1. c #F2F6F8",
"2. c #F2F6F9",
"3. c #F2F7F9",
"4. c #F3F7F9",
"5. c #F1F7FA",
"6. c #F0F6FB",
"7. c #F1F6FB",
"8. c #F1F7FB",
"9. c #F2F6FA",
"0. c #F2F7FA",
"q. c #F3F7FA",
"w. c #F2F7FB",
"e. c #F3F6FC",
"r. c #F2F7FC",
"t. c #F1F7F9",
"y. c #F3F8FA",
"u. c #F2F8FB",
"i. c #F7FBFA",
"p. c #F3F8FB",
"a. c #F8FAF9",
"s. c #F8FBF9",
"d. c #F9FBF9",
"f. c #F8FBFA",
"g. c #F9FBFA",
"h. c #F8FAFB",
"j. c #F8FBFB",
"k. c #F9FBFB",
"l. c #FAFBFB",
"z. c #F8FCFA",
"x. c #FFFFFB",
"c. c #F8FAFC",
"v. c #F9FAFC",
"b. c #F8FBFC",
"n. c #F9FBFC",
"m. c #F9FAFD",
"M. c #F8FBFD",
"N. c #F9FBFD",
"B. c #FAFBFC",
"V. c #FBFBFC",
"C. c #FAFAFD",
"Z. c #FAFBFD",
"A. c #FAFAFE",
"S. c #FAFBFE",
"D. c #F8FCFC",
"F. c #F9FCFD",
"G. c #FAFCFC",
"H. c #FFFFFC",
"J. c #FFFFFD",
"K. c #FFFFFE",
"L. c #FFFFFF",
"P. c #FBFCFC",
/* pixels */
"o o o o o o o o o o o o o o o o o o o o o o o o o o o o o o o o o o o o o o o o o o o o o o o o o o o o o o o o o o o o o o o o ",
"o o o o o o o o o o o o o o o o o o o o o o o o o o o o o o o o o o o o o o o o o o o o o o o o o o o o o o o o o o o o o o o o ",
"o o o o o o o o o o o o o o o o o o o o o o o o o o o o o o o o o o o o o o o o o o o o o o o o o o o o o o o o o o o o o o o o ",
"o o o o o o o o o o o o o o o o o o o o o o o o o o o o o o o o o o o o o o o o o o o o o o o o o o o o o o o o o o o o o o o o ",
"o o o o o o o o o o o o o o o o o o o o o o o o o o o o W W W W o o o o o o o o o o o o o o o o o o o o o o o o o o o o o o o o ",
"o o o o o o o o o o o o o o o o o o o o o o o o o o o o W W o.W o o o o o o o o o o o o o o o o o o o o o o o o o o o o o o o o ",
"o o o o o o o o o o o o o o o o o o o o o o o o o o o o W o.o.W o o o o o o o o o o o o o o o o o o o o o o o o o o o o o o o o ",
"o o o o o o o o o o o o f j j 3 o o o o o o o o o o o o W W W W o o o o o o o o o o o o o o o o o o o o o o o o o o o o o o o o ",
"o o o o o o o o o o . 2 ,.c.c.,.& . o o o o . o C W W W o o o o o o o o o o o o o o o o o o o o o o o o o o o o o o o o o o o o ",
"o o o o o o o o o o . 3 h.K.K.c.& . o o o o . o W o.o.W o . . . o o o o o o o o o o o o o o o o o o o o o o o o o o o o o o o o ",
"o o o o o o o o . .   & z.K.K.z.o . o o o o . o W o.o.W o o o o o o o o o o o o o o o o o o o o o o o o o o o o o o o o o o o o ",
"o o o o o o o o 2 3 & u ,.h.h.,.& . o o o o . o W W W W o o o o o o o o o o o o o o o o o o o o o o o o o o o o o o o o o o o o ",
"o o o o o o o f ,.h.i.,.u & 3 & o o o o o o o o o o o o o o o o o o o o o o o o o o o o o o o o o o o o o o o o C +.+.C o o o o ",
"o o o o o o o j c.K.K.h.o   . . o o o o o o o o . . . . o o o o o o o o o o o o o o o o o o o o o o o o o o o o +.%.%.W o o o o ",
"o o o o . .   o c.K.K.h.& . o o o o o o o o o o o o o o o o o o o o o o o o o o o o o o o o o o o o o o o o o o W %.%.W o o o o ",
"o o o o o j o i ,.h.i.,.& . o o o o o o o o o o o o o o o o o o o o o o j j o 3 o o o o o o o o o o o o o o o o W W W C o o o o ",
"o o o 3 ,.c.c.,.M o & & o o o o o o o o o o o o o o . o o o o o o o o 3 ,.G.h.,.o o o o o o o o o o o o C W W C o o o o o o o o ",
"o o o 3 c.K.K.c.o . . . o o o o o o o o o o o o o o o o o o o o o o o 3 z.x.K.c.o X o o o o o o o o o o %.%.%.W o o o o o o o o ",
"o o o 3 c.K.K.c.& . o o o o o o o o o o o o o o o o o o o o . . o o X o h.K.K.c.3 o o o o o o o o o o o %.W %.W o o o o o o o o ",
"o o o 3 ,.h.h.,.o . o . o o o o o o o o o o o o o o o o o o o o 3 3 o i ,.c.z.e.3 o o o o o o o o o o o W W C C o o o o o o o o ",
"o o o o & & & & o . o o o o o o o o o o o o o o o o o o o o . & y.G.G.u.u o j 3 o o o o o o o o C W W C o o o o o o o o o o o o ",
"o o o o . . o o o o o o o o o o o o o o o o o o o o o o o o . f G.K.K.G.o . o o o o o o o o o o W %.%.W o o o o o o o o o o o o ",
"o o o o o o o o o o o o o o o o o o o o o o o o o o o o . o . f G.K.K.G.3 o o o o o o o o o o o W %.%.W o o o o o o o o o o o o ",
"o o o o o o o o o o o o o o o o o o o o o o o o o o o o o o o & y.c.c.e.& o o o o o o o o o o o C W W C o o o o o o o o o o o o ",
"o o o o o o o o o o o o o o o o o o o o o o o o o o o o C W W W 3 o o o o o o o o o o o o o o o o o o o o o o o o o o o o o o o ",
"o o o o o o o o o o o o o o o o o o o o o o o o o o . o W o.o.W o o o o o o o o o o o o o o o o o o o o o o o o o o o o o o o o ",
"o o o o o o o o o o o o o o o o o o o o o o o o o . . o W o.W W o o o o o o o o o o o o o o o o o o o o o o o o o o o o o o o o ",
"o o o o o o o o o o o o o o o o o o o o o o o o o o o o W W W W o o o o o o o o o o o o o o o o o o o o o o o o o o o o o o o o ",
"o o o o o o o o C C W W o . o o o o o o o o o o C W W W o o o o o o o o o o o o o o o o o o o o o o o o o o o o o o o o o o o o ",
"o o o o o o o o C %.%.W o . o o o o o o o o o o W o.o.W o o o o o o o o o o o o o o o o o o o o o o o o o o o o o o o o o o o o ",
"o o o o . . o o W W %.C o . o o o o o o o o o o W o.W W o o o o o o o o o o o o o o o o o o o o o o o o o o o o o o o o o o o o ",
"o o o o o o o o W W C C o . o o o o o o o o o o W W W W o o o o o o o o o o o o o o o o o o o o o o o o o o o o o o o o o o o o ",
"o o o o C W W W o o o o o o o o o o o o o o o o o o o o o o o o o o o o o o o o o o o o o o o o o o o o o o o o o o o o o o o o ",
"o o o o W %.%.W o o o o o o o o o o o o o o o o o o o o o o o o o o o o o o o o o o o o o o o o o o o o o o o o o o o o o o o o ",
"o o o o W %.W W o o o o o o o o o o o o o o o o o o o o o o o o o o o o o o o o o o o o o o o o o o o o o o o o o o o o o o o o ",
"o o o o C W W C o o o o o o o o o o o o o o o o o o o o o o o o 3 3 3 3 o o o o o o o o o o o o o o o o o o o o o o o o o o o o ",
"o o o o o o o o o o o o o o o o o o o o o o o o o o o o o o o j ,.h.h.,.3 . o o o o o o o o o o o o o o o o o o o o o o o o o o ",
"o o o o o o o o o o o o o o o o o o o o o o o o o o o o o o o j c.K.K.c.3 . o o o o o o o o o o o o o o o o o o o o o o o o o o ",
"o o o o o o o o o o o o o o o o o o o o o o o o o o o o o o X o c.K.K.h.& o o o o o o o o o o o o o o . . o o o o o o o o o o o ",
"o o o o o o o o o o o o o o o o o o o o o o o o o o o o o o o i ,.c.c.,.& o o o o o o o o o o o o o o o & f f 3 o o o o o o o o ",
"o o o o o o o o o o o o o o o o o o o o o o o o o o o & e.c.c.,.B f f f o o o o o o o o o o o o o o o 2 ,.h.c.;.f o o o o o o o ",
"o o o o o o o o o o o o o o o o o o o o o o o o o o o 3 G.K.K.c.j X o o o o o o o o o o o o o o o o o & h.K.K.c.j o o o o o o o ",
"o o o o o o o o o o o o o o o o o o o o o o o o o o o 3 G.K.K.c.j o o o o o o o o o o o o o o o o o o & h.K.K.c.j o o o o o o o ",
"o o o o o o o o o o o o o o o o o o o o o o o o o o o 3 u.G.G.y.& . o o o o o o o o o o o o o o 3 3 f u ,.G.c.,.& o o o o o o o ",
"o o o o o o o o o o o o o o o o o o o o o o o o C W W W 3 3 3 3 o o o o o o o o o o o o o o . & ;.h.h.,.u & 3 3 o o o o o o o o ",
"o o o o o o o o o o o o o o o o o o o o o o o o W %.%.W o o o o o o o o o o o o o o o o o o o 3 z.K.K.h.o . o o o o o o o o o o ",
"o o o o o o o o o o o o o o o o o o o o o o o o W o.W W o o o o o o o o o o o o o o o o . . X f h.K.K.h.3 o o o o o o o o o o o ",
"o o o o o o o o o o o o o o o o o o o o o o o o W W W C o o o o o o o o o o o o o o o o & 3 o M ,.c.c.,.& o o o o o o o o o o o ",
"o o o o C W W C o o o o o o o o o o o o o o o o o o o o o o o o o o o o o o o o o o o & ,.h.h.y.i o j f o o o o o o o o o o o o ",
"o o o o W %.%.W o o o o o o o o o o o o o o o o o o o o o o o o o o o o o o o o o o o 3 h.K.K.c.o . o o o o o o o o o o o o o o ",
"o o o o W %.%.W o o o o o o o o o o o o o o o o o o o o o o o o o o o o o o o o o o o 3 h.K.K.G.j o o o o o o o o o o o o o o o ",
"o o o o C W W C o o o o o o o o o o o o o o o o o o o o o o o o o o o o o o o . o o o 3 ,.h.h.,.f . o o o o o o o o o o o o o o ",
"W W %.C o o o o o o o o o o o o o o o o o o o o o o o o o o o o o o o o o o o o W W W W 1 3 3 & o o o o o o o o o o o o o o o o ",
"%.W %.W o o o o o o o o o o o o o o o o o o o o o o o o o o o o o o o o o o o o W W o.W o o o o o o o o o o o o o o o o o o o o ",
"%.%.%.W o o o o o o o o o o o o o o o o o o o o o o o o o o o o o o o o o o o o W W o.W o o o o o o o o o o o o o o o o o o o o ",
"W W W C o o o o o o o o o o o o o o o o o o o o o o o o o o o o o o o o o o o o U W W W o o o o o o o o o o o o o o o o o o o o ",
"o o o o o o o o o o o o o o o o o o o o o o o o o o o o o o o o o o o o o o o o o o o o o o o o o o o o o o o o o o o o o o o o ",
"o o o o o o o o o o o o o o o o o o o o o o o o o o o o o o o o o o o o o o o o o o o o o o o o o o o o o o o o o o o o o o o o ",
"o o o o o o o o o o o o o o o o o o o o o o o o o o o o o o o o o o o o o o o o o o o o o o o o o o o o o o o o o o o o o o o o ",
"o o o o o o o o o o o o o o o o o o o o o o o o o o o o o o o o o o o o o o o o o o o o o o o o o o o o o o o o o o o o o o o o ",
"o o o o o o o o o o o o o o o o o o o o o o o o o o o o o o o o o o o o o o o o o o o o o o o o o o o o o o o o o o o o o o o o ",
"o o o o o o o o o o o o o o o o o o o o o o o o o o o o o o o o o o o o o o o o o o o o o o o o o o o o o o o o o o o o o o o o ",
"o o o o o o o o o o o o o o o o o o o o o o o o o o o o o o o o o o o o o o o o o o o o o o o o o o o o o o o o o o o o o o o o ",
"o o o o o o o o o o o o o o o o o o o o o o o o o o o o o o o o o o o o o o o o o o o o o o o o o o o o o o o o o o o o o o o o "
};
