/* XPM */
static char *wall[] = {
/* columns rows colors chars-per-pixel */
"64 64 18 1 ",
"  c #306230",
". c #316330",
"X c #2E602F",
"o c #0E380F",
"O c black",
"+ c #265524",
"@ c #184317",
"# c #214F1F",
"$ c #133D13",
"% c #1D491B",
"& c #2A5926",
"* c #2D5E2A",
"= c #38682A",
"- c #447024",
"; c #608718",
": c #709618",
"> c #517B1E",
", c #86A810",
/* pixels */
"OOOOOOOOOOOOOOOOOOOOOOOOOOOOOOOOOOOOOOOOOOOOOOOOOOOOOOOOOOOOOOOO",
"            .+oooo+. .+$#.     . %%::. .*@%X.   X=:,,,:=X .::%% ",
"            .&##@o@+X+##&  ..X+&>=+>>  .*@%X.. .&#-;;;>=   >>++ ",
"               .+$o@&@@*.  **=##:;     .*@%X** *+%&. ..         ",
"               .X&@o$o@*.. %#:>*-=     .*@%*%%X%&;-X          ..",
"                . +@o@+X.*#&>;> XX     .X###%%#*>;-X       ...&#",
"                  .+@#X .&%>:-X          .#$++@;:=X        X**#$",
"   .....          .X&%%X -;;-.           .#$++@;:= ........#$@#&",
" .X####&...        . +%#&-;>X            .&%###>>+##########%%#+",
" .*%@@$%**X           &@#X..              .*%%&X+$$$$$$$$$$#**%o",
" X=;:;=#@$# .        .X+%%*.             ...*#@$%+&&&&&&&&&#@@$o",
" X=;:;-+%**#*.        ..+%#&.      .....X+##+#%@%++#+#+#+#+@oooo",
"   ....X=:>%+X           &@#X      XXXXX&@$$$%X +$$$$$$$$$$ooooo",
"    XX  .-;;+% .        .X+%%*.  .X%@@@@@#+++& .*++++++++++@oooo",
"..       X-:-&+*.        ..+%#*..*#%@@@@%*. ... X         .+@ooo",
"XX         =:;%+           X&@#XX#@&XXXXX .=.XX.=========.. &$oo",
"@+..      X.-;;+% .        .X+#@@%+X..  . >:-+%>:::::::::;= X+@o",
"o@+X.        -:-&+*         X&@o@+.. .-- X>:-+%>:::::::::;*=>.%o",
"oo@&          =:;@+.       .&@o$&   X=:;. .=.XX.=========*@>:-#o",
"ooo@+..      X >-+&        .&$@+X.   =>-.  X .. XXXXXXXXX*+=;:-+",
"oooo@&X.       XX..        .&$#..     XX                  .X=:>.",
"ooooo$&.                   .&$#                             .=. ",
"o@#$oo@+...              ..+@o#                              XX ",
"@+*@ooo@+&* .         ...X&@oo#                             =-= ",
"*X*@oooo$$%X          XX.&@ooo#                            X-:; ",
"..X+@ooooo$%%+ ......+%%%@oooo#..                          X=>- ",
"   .+$ooooooo@&&&&&&&@oooooooo%&X                               ",
"    X&@ooooooo$$$$$$$oooooooooo@*.                              ",
"    .X+@ooooooooooooooooo$%@ooo$&.                            >;",
"      .+$ooooooooooooooo$%*#$oo$&.                            ;,",
"       X&@oooooooooooooo#* X+$o$&.                            ;,",
"       .X+#%$oooooooo@##&. .X#$o%&...                        X-;",
"          .X%$$oooooo+.       #$o%&**                       .== ",
"          . *&&@ooooo+.       X+$o$$# .                    X-:>X",
"            .. +%%$oo#.       .X#%%o$#X....             ... =;>.",
"                .X@o$+.          .*@$@+***X             X*******",
"                .X@$+X           .X&&+@$$$# ........... #$$$$$$$",
". X           XX->#@X.             ..X#%%%%#############%%%%@o$%",
"*.=.         .=.>:*@X.                 X  +o$$$$$$$$$$$$+  .&@#*",
"$-:-XX  X  XX>:>*&+&X                  ...#$#&+++++++++&*...X&%$",
"%=>&=>=->=->**>*@o+.                    X+#%*............    .==",
"X#$$-:->:->:&o$$oo+.                   =.@%X                  ;,",
".*++&+%%+%%&+++&#$+.                  X>:#@X.                 =>",
" ...+@@@@@@%&..&#%&.                X.>;>+#X.                 XX",
"    XXXXXXXX .X@@*                   -:>@+                      ",
"     ....... .X@@X.           XX  XX>:-++X.                     ",
"  .........  .X@@*          X.->=->=->##..                      ",
" XXXXXXXXXX  .X@@..        ..X;:=>:-#@&                         ",
".+@@@@@@@@# ..X@+;-X    XX.;;##&%#&%%+X.                        ",
"+#@@@@@@@@%++&X@#;;-.   --&->#$@@@@@#++&                        ",
"$#XXXXXXXX+$$%*@o%;:=XX=;;%$%&XXXXXX#$$%X                       ",
"#&........&++#%$$#&>;*&;>*+#+X......&###%*.                   XX",
"..        . *%o$#X%+;-=;*%*..        ..#$#*                   ->",
"          .X%o$+X X+%;;##X            .#oo%X                  ;,",
"          .*@$#*. .+$;:&&.             #$%#%&X               X=-",
"          .X@@X.  .+$;:=X            .-&$&+$.-.            X.-&$",
"          .X@@X.  .+$;:=X           X=:>$&#@;:.X           X-:>*",
"          .X@@X.  .&+;:=X          X-;>*+*&+=-.XX          >;-=.",
"          .X@@X.    .;;-=         .-;;#% ..X%%&=-.         >;%# ",
"          .X@@X.   . #*:>X       X=:>%+X    *#@;:=X       .+%&X ",
"          .X@$#&.   X++-;>=X=;-=;>.-*#*.    .&#=-.>>.   X=;&$*. ",
"          .X@oo+.    .+$>:=*-,;-,;&$% .      .X@@.::=X  X-,-$&. ",
"OOOOOOOOOOOOOOOOOOOOOOOOOOOOOOOOOOOOOOOOOOOOOOOOOOOOOOOOOOOOOOOO",
"OOOOOOOOOOOOOOOOOOOOOOOOOOOOOOOOOOOOOOOOOOOOOOOOOOOOOOOOOOOOOOOO"
};
