/* XPM */
static char *background1[] = {
/* columns rows colors chars-per-pixel */
"64 64 164 2 ",
"   c None",
".  c #020301",
"X  c #030A03",
"o  c #1D0F05",
"O  c #170C05",
"+  c #051405",
"@  c #071907",
"#  c #081A07",
"$  c #0A1205",
"%  c #1B1406",
"&  c #1C1A07",
"*  c #1D150D",
"=  c #131B08",
"-  c #1C1A0D",
";  c #381C0A",
":  c #2A1507",
">  c #0A240A",
",  c #0D2C0C",
"<  c #12240A",
"1  c #1F2308",
"2  c #0E330E",
"3  c #0F380F",
"4  c #212007",
"5  c #20260C",
"6  c #32230B",
"7  c #22300C",
"8  c #363F0D",
"9  c #3F3C0E",
"0  c #3C2713",
"q  c #322E19",
"w  c #3C2813",
"e  c #47260C",
"r  c #4F270D",
"t  c #48290D",
"y  c #47290E",
"u  c #4F2C13",
"i  c #563110",
"p  c #583010",
"a  c #633211",
"s  c #783D14",
"d  c #763D15",
"f  c #453621",
"g  c #4C3724",
"h  c #3A400E",
"j  c #5A4618",
"k  c #4F5013",
"l  c #515112",
"z  c #585612",
"x  c #4D4F11",
"c  c #7B4015",
"v  c #636517",
"b  c #696117",
"n  c #716D18",
"m  c #56442A",
"M  c #60472E",
"N  c #765939",
"B  c #8A4517",
"V  c #974C19",
"C  c #A7561D",
"Z  c #AA531C",
"A  c #B0591E",
"S  c #BE611F",
"D  c #925C27",
"F  c #825E3F",
"G  c #8B5227",
"H  c #8D7727",
"J  c #89663F",
"K  c #AB7F39",
"L  c #BC6020",
"P  c #C36220",
"I  c #C96622",
"U  c #C06729",
"Y  c #D36A23",
"T  c #DD6C25",
"R  c #DF7025",
"E  c #C26433",
"W  c #C3732D",
"Q  c #E37326",
"!  c #EA7627",
"~  c #E67C27",
"^  c #E1772B",
"/  c #845F40",
"(  c #866240",
")  c #926B45",
"_  c #A4784D",
"`  c #A87B51",
"'  c #8A871D",
"]  c #9C9523",
"[  c #95842D",
"{  c #A19C21",
"}  c #AC803A",
"|  c #B59031",
" . c #BD9939",
".. c #AAA624",
"X. c #BCB529",
"o. c #CF8534",
"O. c #C29E39",
"+. c #DA9D33",
"@. c #E38128",
"#. c #E78E29",
"$. c #EE842A",
"%. c #E8922F",
"&. c #EC9B2B",
"*. c #E18639",
"=. c #F0852A",
"-. c #C4BF29",
";. c #C5AE30",
":. c #CBAD3B",
">. c #D6BF36",
",. c #D5B838",
"<. c #E9A02C",
"1. c #EEAC2D",
"2. c #E8A430",
"3. c #E1B235",
"4. c #EFB931",
"5. c #E8B13F",
"6. c #DCD42F",
"7. c #DFD82F",
"8. c #DBC537",
"9. c #E1DA2F",
"0. c #E8C234",
"q. c #E0CB37",
"w. c #F1C331",
"e. c #F2CA32",
"r. c #F3CD38",
"t. c #EDDA36",
"y. c #E5D536",
"u. c #F5D532",
"i. c #F2DB36",
"p. c #EEE036",
"a. c #F4E436",
"s. c #F9E435",
"d. c #F6E937",
"f. c #F9ED37",
"g. c #F7E73D",
"h. c #FFEF3B",
"j. c #FCF436",
"k. c #FFFA35",
"l. c #FFFF38",
"z. c #BF824B",
"x. c #BC8B58",
"c. c #BB8B57",
"v. c #C9935F",
"b. c #DD9B5B",
"n. c #DF9250",
"m. c #DD914F",
"M. c #E68541",
"N. c #E59354",
"B. c #DDA75E",
"V. c #DDAA5F",
"C. c #E9BF57",
"Z. c #E8BC59",
"A. c #D09863",
"S. c #D89F65",
"D. c #DEA269",
"F. c #E1AA66",
"G. c #E2A769",
"H. c #E6B461",
"J. c #F0D447",
"K. c #F4D948",
"L. c #F6DE46",
"P. c #EDC556",
"I. c #F2CF51",
"U. c #FEE24C",
/* pixels */
"                                                                                                                                ",
"                                                                                                                                ",
"3 3 3 3 3 3 3 3 3 3 3 3 3 3 3 3 3 3 3 3 3 3 3 3 3 3 3 3 3 3 3 3 3 3 3 3 3 3 3 3 3 3 3 3 3 3 3 3 3 3 3 3 3 3 3 3 3 3 3 3 3 3 3 3 ",
"3 3 3 3 3 3 3 3 3 3 3 3 3 3 3 3 3 3 3 3 3 3 3 3 3 3 3 3 3 3 3 3 3 3 3 3 3 3 3 3 3 3 3 3 3 3 3 3 3 3 3 3 3 3 3 3 3 3 3 3 3 3 3 3 ",
"3 3 3 3 3 3 3 3 3 3 3 3 3 3 3 3 3 3 3 3 3 3 3 3 3 3 3 3 3 3 3 3 3 3 3 3 3 3 3 3 3 3 3 3 3 3 3 3 3 3 3 3 3 3 3 3 3 3 3 3 3 3 3 3 ",
"3 3 3 3 3 3 3 3 3 3 3 3 3 3 3 3 3 3 3 3 3 3 3 3 3 3 3 3 3 3 3 3 3 3 3 3 3 3 3 3 3 3 3 3 3 3 3 3 3 3 3 3 3 3 3 3 3 3 3 3 3 3 3 3 ",
"3 3 3 3 3 3 3 3 3 3 3 3 3 3 3 3 3 3 3 3 3 3 3 3 3 3 3 3 3 3 3 3 3 3 3 3 3 3 3 3 3 3 3 3 3 3 3 3 3 3 3 3 3 3 3 3 3 3 3 3 3 3 3 3 ",
"3 3 3 3 3 3 3 3 3 3 3 3 3 3 3 3 3 3 3 3 3 3 3 3 3 3 3 3 3 3 3 3 3 3 3 3 3 3 3 3 3 3 3 3 3 3 3 3 3 3 3 3 3 3 3 3 3 3 3 3 3 3 3 3 ",
"3 3 3 3 3 3 3 3 3 3 3 3 3 3 3 3 3 3 3 3 3 3 3 3 3 3 3 3 3 3 3 3 3 2 2 2 2 2 2 2 3 3 3 3 3 3 3 3 3 3 3 3 3 3 3 3 3 3 3 3 3 3 3 3 ",
"3 3 3 3 3 3 3 3 3 3 3 3 3 3 3 3 3 3 3 3 3 3 3 3 3 3 3 3 3 3 3 2 , > > > > > > , 2 3 3 3 3 3 3 3 3 3 3 3 3 3 3 3 3 3 3 3 3 3 3 3 ",
"3 3 3 3 3 3 3 3 3 3 3 3 3 3 3 3 3 3 3 3 3 3 3 3 3 3 3 3 3 3 3 , > @ + $ $ + @ > , 3 3 3 3 3 3 3 3 3 3 3 3 3 3 3 3 3 3 3 3 3 3 3 ",
"3 3 3 3 3 3 3 3 3 3 3 3 3 3 3 3 3 3 3 3 3 3 3 3 3 3 3 3 3 3 2 > # X X . . X X # > 2 3 3 3 3 3 3 3 3 3 3 3 3 3 3 3 3 3 3 3 3 3 3 ",
"3 3 3 3 3 3 3 3 3 3 3 3 3 3 3 3 3 3 3 3 3 3 3 3 3 3 3 3 3 2 , < = % % o o o % = < , 2 2 2 2 2 2 3 3 3 3 3 3 3 3 3 3 3 3 3 3 3 3 ",
"3 3 3 3 3 3 3 3 3 3 3 3 3 3 3 3 3 3 3 3 3 3 3 3 3 3 3 2 , > < & 6 e r r r r e 6 5 < > > > > > , 2 3 3 3 3 3 3 3 3 3 3 3 3 3 3 3 ",
"3 3 3 3 3 3 3 3 3 3 3 3 3 3 3 3 3 3 3 3 3 3 3 3 3 3 3 , > @ $ 6 i d B B B B d i 6 = + + + + @ > , 3 3 3 3 3 3 3 3 3 3 3 3 3 3 3 ",
"3 3 3 3 3 3 3 3 3 3 3 3 3 3 3 3 3 3 3 3 3 3 3 3 3 3 2 > @ X % e s C S I I L C c t % X X . X X # > 2 3 3 3 3 3 3 3 3 3 3 3 3 3 3 ",
"3 3 3 3 3 3 3 3 3 3 3 3 3 3 3 3 3 3 3 3 2 2 2 2 2 2 , < < 5 0 j D W @.$.~ Q P V a ; o O O o % = < , 2 2 2 2 2 2 3 3 3 3 3 3 3 3 ",
"3 3 3 3 3 3 3 3 3 3 3 3 3 3 3 3 3 3 3 2 , > > > > > < 7 8 k b H | +.&.&.=.Q Y Z B a r r r r e 6 5 < > > > > > , 2 3 3 3 3 3 3 3 ",
"3 3 3 3 3 3 3 3 3 3 3 3 3 3 3 3 3 3 3 , > @ + + + + = 8 v ' { ;.,.0.4.1.%.~ Y P Z V B B B B s p 6 = + + + + @ > , 2 3 3 3 3 3 3 ",
"3 3 3 3 3 3 3 3 3 3 3 3 3 3 3 3 3 3 2 > # X X . X X 5 l ' X.6.p.a.a.u.4.&.@.R Y I P P P P P C c t % X X . X X @ > 2 3 3 3 3 3 3 ",
"3 3 3 3 3 3 3 3 3 3 3 3 3 3 3 3 3 2 , < < 1 4 & & 4 9 n ..6.f.k.k.j.a.e.1.%.@.^ Q Q R Q Q R P V a ; o . . . X + > 2 3 3 3 3 3 3 ",
"3 3 3 3 3 3 3 3 3 3 3 3 3 3 3 2 , > < 7 h l z z z z n ] -.a.k.l.l.j.f.u.w.1.&.#.@.~ ! ! ! Q Y A B a 0 : O . . + > 2 3 3 3 3 3 3 ",
"3 3 3 3 3 3 3 3 3 3 3 3 3 3 3 , > @ < 8 v ' ] ] ] { ..-.6.f.k.k.k.j.f.s.u.e.4.2.#.~ Q Q Q Q T I A V s r : . X + > 2 3 3 3 3 3 3 ",
"3 3 3 3 3 3 3 3 3 3 3 3 3 3 2 > @ X 5 k ' X.6.6.6.6.6.9.a.f.j.j.j.j.j.f.f.a.u.4.&.@.Q T R Q R T Y P Z s 0 o X + > 2 3 3 3 3 3 3 ",
"3 3 3 3 3 3 3 3 3 3 3 3 3 2 , < < 5 9 n ..6.f.f.s.i.i.a.d.f.j.j.j.j.j.j.j.j.a.w.<.@.R T T R Q Q Q R P V a ; % = > , 2 2 3 3 3 3 ",
"3 3 3 3 3 3 3 3 3 3 3 2 , > < 7 8 l n ] -.a.h.s.r.4.4.w.t.d.j.j.j.j.k.k.k.j.s.w.<.@.T T T T R Q ! Q Y A B a y 6 5 < > > 3 3 3 3 ",
"3 3 3 3 3 3 3 3 3 3 2 , > # < h v ' ..-.9.d.d.e.2.o.o.+.0.a.j.k.k.k.k.k.k.j.s.w.<.@.T T T T T Q Q Q T I A V c i 6 = + + 3 3 3 3 ",
"3 3 3 3 3 3 3 3 3 3 2 > @ X 1 l ' X.6.a.f.f.i.3.o.E E o.3.i.j.j.j.j.j.j.j.j.a.w.<.@.Q T T R Q Q Q Q R T Y P C c t % X . 3 3 3 3 ",
"3 3 3 3 3 3 3 3 3 3 2 > + X 4 z ] 6.f.l.l.j.i.3.o.E E o.3.i.f.f.d.p.p.a.f.f.s.e.1.%.@.@.@.@.@.~ ^ Q Q Q Q R P B r o . . 3 3 3 3 ",
"3 3 3 3 3 3 3 3 3 3 2 > + . & z ] 6.k.l.l.k.d.0.+.o.o.+.0.a.d.p.q.>.>.q.t.d.d.u.w.1.<.<.<.<.&.#.@.^ Q Q ! Q P B r o . . 3 3 3 3 ",
"3 3 3 3 3 3 3 3 3 3 2 > + X & z ] 6.k.l.l.k.f.t.0.3.3.0.t.d.a.q.:. . .:.q.a.f.s.u.e.w.w.w.w.4.2.#.~ Q Q Q Q P B r o . . 3 3 3 3 ",
"3 3 3 3 3 3 3 3 3 3 2 > + X 4 z ] 6.j.k.k.j.f.d.a.i.i.s.f.f.p.>. .K K  .>.p.f.j.f.s.a.s.s.a.u.4.&.@.Q Q Q R P B r o . . 3 3 3 3 ",
"3 3 3 3 3 3 3 3 3 2 , < = 5 9 n ..6.f.h.d.i.i.a.d.f.j.j.k.j.p.>. .K K  .>.p.j.k.j.j.j.j.j.j.a.w.2.*.^ ^ ^ ^ U B u o . . 3 3 3 3 ",
"3 3 3 3 3 3 3 2 , > < 7 h l n ] -.t.d.i.0.3.3.0.t.f.k.k.k.j.a.q.:. . .:.q.a.j.k.k.k.k.k.k.k.d.r.5.%.*.M.M.*.W G u o . . 3 3 3 3 ",
"3 3 3 3 3 3 3 , > @ < 8 v ' ..-.9.a.a.0.+.o.o.+.0.a.j.k.k.j.d.t.q.>.>.q.t.f.j.k.k.k.k.k.k.k.f.J.5.b.n.N.N.m.z.D f * . . 3 3 3 3 ",
"3 3 3 3 3 3 2 > @ X 5 l ' X.6.a.f.f.i.3.o.E E o.3.i.j.k.j.j.f.d.a.p.p.a.d.f.j.j.j.j.j.j.j.j.g.J.Z.B.b.b.b.b.z.F g * . . 3 3 3 3 ",
"3 3 3 3 3 2 , < < 5 9 b ] >.t.f.j.f.i.3.o.E E o.3.i.j.k.j.j.j.j.j.j.f.f.f.g.g.g.g.g.g.d.f.g.L.I.Z.V.S.A.v.c._ N f - X X 3 3 3 3 ",
"3 3 3 2 , > < 7 h l b H ] ;.8.t.d.f.a.0.+.o.o.+.0.a.j.k.j.j.j.k.k.k.j.f.a.K.J.J.J.J.J.K.K.K.I.P.Z.F.S.x.` ) N m q < + + 3 3 3 3 ",
"3 3 2 , > # < h v ' ] ] | | O.,.y.a.d.t.0.3.3.0.t.f.j.k.k.j.j.k.k.k.j.g.J.P.C.Z.Z.C.C.C.P.P.C.Z.H.F.A.` F M f q 5 < > > 3 3 3 3 ",
"3 3 2 > @ X 5 x ' X.>.;.| K }  .>.p.f.f.s.i.i.a.d.f.j.j.j.j.j.j.j.j.d.K.P.H.V.V.V.V.V.V.V.V.V.F.G.S.x.) M w - = > , , 2 3 3 3 3 ",
"3 3 2 > + X 4 z { 6.y.8.O.} K  .>.p.j.k.j.j.f.f.f.g.g.g.g.g.g.f.f.g.L.I.Z.V.D.S.S.S.S.A.v.x.c.x.x.c._ N f - + @ > 2 3 3 3 3 3 3 ",
"3 3 2 > + . 4 z { 7.f.i.,.O. .:.q.a.j.k.k.k.j.f.a.K.J.J.J.K.K.K.K.K.I.P.H.F.D.D.D.D.A.c._ ) ( ( ( ( N m q = @ > , 3 3 3 3 3 3 3 ",
"3 3 2 > + . 4 z { 6.j.f.t.8.>.q.t.f.j.k.k.k.j.g.J.P.C.C.C.P.P.P.P.P.C.H.H.G.D.G.G.D.v.` / M g f g g f q 5 < > , 2 3 3 3 3 3 3 3 ",
"3 3 2 > + X 4 z ] 6.f.j.f.p.p.a.d.f.j.j.j.j.d.K.P.H.V.B.V.V.V.V.V.V.V.B.D.S.S.D.D.S.x.) M 0 * o * * - < < , 2 3 3 3 3 3 3 3 3 3 ",
"3 3 2 > + X 4 z ] 8.g.h.h.g.g.g.g.g.g.f.f.g.L.I.Z.V.S.A.v.x.c.c.c.c.c.c.c.c.c.x.x.c._ N f - X X . X + # > 2 3 3 3 3 3 3 3 3 3 3 ",
"3 3 2 > + . 4 j [ ,.K.U.U.L.L.L.K.K.K.K.K.K.I.P.H.G.A.c._ ) / / / / / ( ( ( ( J J ( N m q = + + + + @ > , 3 3 3 3 3 3 3 3 3 3 3 ",
"3 3 2 > + . & j H :.P.I.I.P.P.P.P.P.P.P.P.P.C.Z.H.G.v.` / M g f f g g g g g g g g g f q 5 < > > > > > , 2 3 3 3 3 3 3 3 3 3 3 3 ",
"3 3 2 > + X * g J x.V.H.H.V.V.V.V.V.V.V.V.V.V.F.G.S.x.) M 0 * o * * * * * * * * * * - < < , 2 2 2 2 2 2 3 3 3 3 3 3 3 3 3 3 3 3 ",
"3 3 2 > @ X - f N _ c.x.x.c.c.c.c.c.c.c.c.c.c.x.x.c._ N f - X X X X X X X X X . . X X # > 2 3 3 3 3 3 3 3 3 3 3 3 3 3 3 3 3 3 3 ",
"3 3 2 , > # < q m N / ( ( / / / / / / / / / ( ( J ( N m q = + + + + + + + + + + + + @ > , 3 3 3 3 3 3 3 3 3 3 3 3 3 3 3 3 3 3 3 ",
"3 3 3 2 , > < 5 q f g g g g g g g g g g g g g g g g f q 5 < > > > > > > > > > > > > > , 2 3 3 3 3 3 3 3 3 3 3 3 3 3 3 3 3 3 3 3 ",
"3 3 3 3 3 2 , < < - * * * * * * * * * * * * * * * * - < < , 2 2 2 2 2 2 2 2 2 2 2 2 2 2 3 3 3 3 3 3 3 3 3 3 3 3 3 3 3 3 3 3 3 3 ",
"3 3 3 3 3 3 2 > # X X . . X X X . . X X X X X . . X X # > 2 3 3 3 3 3 3 3 3 3 3 3 3 3 3 3 3 3 3 3 3 3 3 3 3 3 3 3 3 3 3 3 3 3 3 ",
"3 3 3 3 3 3 3 , > @ + + + + + + + + + + + + + + + + @ > , 3 3 3 3 3 3 3 3 3 3 3 3 3 3 3 3 3 3 3 3 3 3 3 3 3 3 3 3 3 3 3 3 3 3 3 ",
"3 3 3 3 3 3 3 2 , > > > > > > > > > > > > > > > > > > , 2 3 3 3 3 3 3 3 3 3 3 3 3 3 3 3 3 3 3 3 3 3 3 3 3 3 3 3 3 3 3 3 3 3 3 3 ",
"3 3 3 3 3 3 3 3 2 2 2 2 2 2 2 2 2 2 2 2 2 2 2 2 2 2 2 2 3 3 3 3 3 3 3 3 3 3 3 3 3 3 3 3 3 3 3 3 3 3 3 3 3 3 3 3 3 3 3 3 3 3 3 3 ",
"3 3 3 3 3 3 3 3 3 3 3 3 3 3 3 3 3 3 3 3 3 3 3 3 3 3 3 3 3 3 3 3 3 3 3 3 3 3 3 3 3 3 3 3 3 3 3 3 3 3 3 3 3 3 3 3 3 3 3 3 3 3 3 3 ",
"3 3 3 3 3 3 3 3 3 3 3 3 3 3 3 3 3 3 3 3 3 3 3 3 3 3 3 3 3 3 3 3 3 3 3 3 3 3 3 3 3 3 3 3 3 3 3 3 3 3 3 3 3 3 3 3 3 3 3 3 3 3 3 3 ",
"3 3 3 3 3 3 3 3 3 3 3 3 3 3 3 3 3 3 3 3 3 3 3 3 3 3 3 3 3 3 3 3 3 3 3 3 3 3 3 3 3 3 3 3 3 3 3 3 3 3 3 3 3 3 3 3 3 3 3 3 3 3 3 3 ",
"3 3 3 3 3 3 3 3 3 3 3 3 3 3 3 3 3 3 3 3 3 3 3 3 3 3 3 3 3 3 3 3 3 3 3 3 3 3 3 3 3 3 3 3 3 3 3 3 3 3 3 3 3 3 3 3 3 3 3 3 3 3 3 3 ",
"3 3 3 3 3 3 3 3 3 3 3 3 3 3 3 3 3 3 3 3 3 3 3 3 3 3 3 3 3 3 3 3 3 3 3 3 3 3 3 3 3 3 3 3 3 3 3 3 3 3 3 3 3 3 3 3 3 3 3 3 3 3 3 3 ",
"3 3 3 3 3 3 3 3 3 3 3 3 3 3 3 3 3 3 3 3 3 3 3 3 3 3 3 3 3 3 3 3 3 3 3 3 3 3 3 3 3 3 3 3 3 3 3 3 3 3 3 3 3 3 3 3 3 3 3 3 3 3 3 3 ",
"3 3 3 3 3 3 3 3 3 3 3 3 3 3 3 3 3 3 3 3 3 3 3 3 3 3 3 3 3 3 3 3 3 3 3 3 3 3 3 3 3 3 3 3 3 3 3 3 3 3 3 3 3 3 3 3 3 3 3 3 3 3 3 3 ",
"3 3 3 3 3 3 3 3 3 3 3 3 3 3 3 3 3 3 3 3 3 3 3 3 3 3 3 3 3 3 3 3 3 3 3 3 3 3 3 3 3 3 3 3 3 3 3 3 3 3 3 3 3 3 3 3 3 3 3 3 3 3 3 3 "
};
