/* XPM */
static char *collectables[] = {
/* columns rows colors chars-per-pixel */
"64 64 192 2 ",
"   c #181C1D",
".  c #291C1F",
"X  c #0F380F",
"o  c #132C15",
"O  c #19261A",
"+  c #162C1A",
"@  c #0F3810",
"#  c #133414",
"$  c #113913",
"%  c #183719",
"&  c #153C1B",
"*  c #233A1C",
"=  c #1C1C22",
"-  c #221F27",
";  c #231F28",
":  c #1D2326",
">  c #1A3A23",
",  c #1E332D",
"<  c #1D3929",
"1  c #1E3131",
"2  c #23272C",
"3  c #28252D",
"4  c #20392E",
"5  c #232C33",
"6  c #223235",
"7  c #263936",
"8  c #29393D",
"9  c #34333C",
"0  c #303A3F",
"q  c #5C3A32",
"w  c #1E4617",
"e  c #27491D",
"r  c #26571C",
"t  c #2C621E",
"y  c #1A4224",
"u  c #1D442A",
"i  c #375A26",
"p  c #254438",
"a  c #2E6726",
"s  c #356A24",
"d  c #3B7727",
"f  c #734234",
"g  c #406E29",
"h  c #407B2A",
"j  c #2B3E41",
"k  c #343B42",
"l  c #3A3C44",
"z  c #413A45",
"x  c #413E4B",
"c  c #2B4343",
"v  c #2D4C49",
"b  c #354448",
"n  c #3F424C",
"m  c #31494B",
"M  c #325652",
"N  c #2E6D48",
"B  c #347F44",
"V  c #397051",
"C  c #3B6666",
"Z  c #3E6C6B",
"A  c #47454E",
"S  c #494551",
"D  c #454E54",
"F  c #4F4A58",
"G  c #524B5B",
"H  c #57525F",
"J  c #77514A",
"K  c #765954",
"L  c #5E645E",
"P  c #457A5C",
"I  c #72665F",
"U  c #74725B",
"Y  c #5A5362",
"T  c #575C61",
"R  c #5B5B65",
"E  c #406E6C",
"W  c #5F636A",
"Q  c #42716C",
"!  c #487C6D",
"~  c #467270",
"^  c #4D7372",
"/  c #5F7B74",
"(  c #58767A",
")  c #547A7B",
"_  c #61626B",
"`  c #646972",
"'  c #6B6D76",
"]  c #68757A",
"[  c #77737A",
"{  c #854D2F",
"}  c #874D30",
"|  c #905942",
" . c #966553",
".. c #AA6549",
"X. c #B76B45",
"o. c #B67641",
"O. c #927569",
"+. c #AC7663",
"@. c #C2724E",
"#. c #CE7749",
"$. c #D97D45",
"%. c #43842B",
"&. c #498D2D",
"*. c #4D9130",
"=. c #549B34",
"-. c #59A336",
";. c #66B53C",
":. c #398446",
">. c #459052",
",. c #479A50",
"<. c #55995A",
"1. c #54A64E",
"2. c #5FB64F",
"3. c #5AAE52",
"4. c #5FB451",
"5. c #64AE59",
"6. c #61B552",
"7. c #63B952",
"8. c #67B25C",
"9. c #69B758",
"0. c #488866",
"q. c #518367",
"w. c #548C64",
"e. c #55986A",
"r. c #5A847D",
"t. c #609169",
"y. c #67817A",
"u. c #619E70",
"i. c #7AB066",
"p. c #71BB67",
"a. c #74AD75",
"s. c #75C94B",
"d. c #76CF4E",
"f. c #79D44D",
"g. c #7ED94C",
"h. c #69C051",
"j. c #E0823D",
"k. c #BD8765",
"l. c #C58142",
"z. c #82DF4B",
"x. c #91DA59",
"c. c #83E04C",
"v. c #8BE64F",
"b. c #98EA53",
"n. c #9DE15C",
"m. c #A6ED5A",
"M. c #B1F25E",
"N. c #8BC166",
"B. c #91C963",
"V. c #9BD265",
"C. c #677B84",
"Z. c #747382",
"A. c #787784",
"S. c #7A7D89",
"D. c #827988",
"F. c #5F8684",
"G. c #618786",
"H. c #6C8485",
"J. c #688B88",
"K. c #76878C",
"L. c #6F908B",
"P. c #748491",
"I. c #7D8991",
"U. c #779995",
"Y. c #7EA082",
"T. c #83838E",
"R. c #93878E",
"E. c #888797",
"W. c #858B95",
"Q. c #96989B",
"!. c #89A28C",
"~. c #84A298",
"^. c #94BE9B",
"/. c #93A8A7",
"(. c #94ACAA",
"). c #A4AAAF",
"_. c #ACAFB1",
"`. c #ACB3B5",
"'. c #AEBABC",
"]. c #C09789",
"[. c #96C19E",
"{. c #ACC3BF",
"}. c #B6D8BA",
"|. c #B9C9C8",
" X c #BFD4C7",
".X c #CBD2D3",
"XX c #CDD3D1",
"oX c #DBDFE0",
"OX c #DFE1E2",
"+X c #E5E6E6",
"@X c #F5F1F3",
"#X c #FDFDFD",
/* pixels */
"X X X X X X X X X X X X X X X X X X X X X X X X X X X X X X X X X X X X X X X X X X X X X X X X X X X X X X X X X X X X X X X X ",
"X X X X X X X X X X X X X X X X X X X X X X X X X X X X X X X X X X X X X X X X X X X X X X X X X X X X X X X X X X X X X X X X ",
"X X X X X X X X X X X X X X X X X X X X X X X X X X X X X X X X X X X X X X X X X X X X X X X X X X X X X X X X X X X X X X X X ",
"X X X X X X X X X X X X X X X X X X X X X X X X X X X X X X X X X X X X X X X X X X X X X X X X X X X X X X X X X X X X X X X X ",
"X X X X X X X X X X X X X X X X X X X X X X X $ 7 6 6 6 6 6 6 6 6 6 6 8 y X X X X X X X X X X X X X X X X X X X X X X X X X X X ",
"X X X X X X X X X X X X X X X X X X X X X $ u j 2 . . . . . . . . . . 3 m u $ $ X X X X X X X X X X X X X X X X X X X X X X X X ",
"X X X X X X X X X X X X X X X X X X $ m 6 6 6 9 q f f f f f } { f q f q z 8 6 8 p X X X X X X X X X X X X X X X X X X X X X X X ",
"X X X X X X X X X X X X X X X X X $ M k 3 ; 3 q | ..@.@.X.@.j.#.......| q ; = ; c u X X X X X X X X X X X X X X X X X X X X X X ",
"X X X X X X X X X X X X X X X X $ c m ' T.[ _ L I O.#.$.$.j.j.j.X.X.O.I R G n l 0 j & X X X X X X X X X X X X X X X X X X X X X ",
"X X X X X X X X X X X X X X X X $ 5 l Q.oX.X).J.^ U @.$.j.j.$.#.#.+.U ^ C.T.Z.T l : > X X X X X X X X X X X X X X X X X X X X X ",
"X X X X X X X X X X X X X X X X X p n A.).|.'.U.~ I ..#.j.$.@.@.$.l.U Q P.E.' D k 7 $ X X X X $ $ $ $ $ $ $ $ X X X X X X X X X ",
"X X X X X X X X X X X X X X X X X @ v 0 n T.`.U.^ I  .X.#.@...X.$.l.U ^ P.T.G 3 8 $ X X X X X % : : O O O   + X X X X X X X X X ",
"X X X X X X X X X X X X X X X X X X & : ; ' '.`./.Q.].].k.+.O.+.k.k.O.C.P.A.x   6 X X X X X X +   * e e e + O $ X X X X X X X X ",
"X X X X X X X X X X X X X X X X X X $ 5 3 ' '..X+X+X+X.XQ.R.R.R.R.R.E.T.S.` 9 = < X X X X X X + * s s d s e + $ X X X X X X X X ",
"X X X X X X X X X X X X X X X X X X X 7 0 T I.'..XoX.X`.R.D.D.D.D.D.T.S.` D k 4 $ X X X X X $ o * d &.&.%.i O % $ X X X X X X X ",
"X X X X X X X X X X X X X X X X X X X X p c x _ I.R.O. .K J J J K K ' ` n 5 8 & X X X $ # # o O * d &.&.h i   O # # $ X X X X X ",
"X X X X X X X X X X X X X X X X X X X X & 6 = n ' I f f } } | } f J I _ 9 = 7 $ X X $ # o $ % % e a &.%.h s e * % + O $ X X X X ",
"X X X X X X X X X X X X X X X X X X X X $ 5 = T Q.O.J } | X.#.X.} J [ Z.z = 7 $ X X $ # % w r r a s *.%.d d s d s e O # X X X X ",
"X X X X X X X X X X X X X X X X X X X X $ 5 2 ` ).R.K J  .o.l.o.| K D.D.x = 7 $ X X $ # & w t t d %.-.*.%.d s s r r + % X X X X ",
"X X X X X X X X X X X X X X X X X X X X $ 5 = ` ).Q.L T L U U U L ` T.D.x = 7 & $ $ $ o w r d %.*.=.-.=.%.h s t r r + # X X X X ",
"X X X X X X X X X X X X X X X X X X X X y 8 9 Z.'./.G.) r.) ~ Z Z ^ P.A.S 5 c y $ $ & + e r %.=.=.-.;.-.&.%.d s r i O # X X X X ",
"X X X X X X X X X X X X X X X X X X X p 8 D A.`.oXXX|.{.{./.) Z Z Q ) C.` R n 4 & & $ o + e i i g *.;.=.s h i i i * O # X X X X ",
"X X X X X X X X X X X X X X X X X X p 6 9 A.|.OX#X#X#X#X#X|.J.Z Z Z E ^ H.S.G 5 < & & # o + O   e h =.d t r O O + O # $ X X X X ",
"X X X X X X X X X X X X X X X X $ c j D [ _.+X#X#X#X#X#X#X.XJ.Z Z E Z E ) C.` H b 4 > & & $ % O * s d t r e o # $ $ X X X X X X ",
"X X X X X X X X X X X X X X X X v 1 9 S.'.+X#X#X#X#X#X#X#X XJ.Z Z E E E E ^ H.S.H 5 , y & & & + * a r r r e # X X X X X X X X X ",
"X X X X X X X X X X X X X X $ c c D [ _.+X#X#X#X#X#X#X#X#X.XJ.Z Z E E E Z E ) H.` F b p & & & + + e r r e * # X X X X X X X X X ",
"X X X X X X X X X X X X X X v 5 l S.`.oX#X#X#X#X#X#X#X#X#X XJ.Z Z E E E E E E ^ C.S.H 5 < y & # o + # # # o @ X X X X X X X X X ",
"X X X X X X X X X X X X $ m D W Z.W.`.oX#X#X#X#X#X+X|.|.|./.r.Z Z E E E E E Z E ) C.` A l p % $ $ # $ $ X X X X X X X X X X X X ",
"X X X X X X X X X X X $ v 5 Y `.|.U.L.|.#X#X#X#X#X|.L.r.r.) ~ Z E E E E E E E E E ^ ( A.R 9 < $ X X X X X X X X X X X X X X X X ",
"X X X X X X X X X X & v D T T.'.{.F.r.|.#X+X.X.X|.~.~ C C C Z Z Z Z Z Z E E E E Z E ) P.` S l p $ X X X X X X X X X X X X X X X ",
"X X X X X X X X X $ m 5 T _..X~.r.Q G. X@X{.J.G.G.) E Z Z Z Z Z Z Z Z E E E E E E E Q ^ ( Z.R 9 6 y X X X X X X X X X X X X X X ",
"X X X X X X X X $ M m G T.|.'.G.C C r.`.|.U.Z P w.t.t.t.t.t.t.t.t.t.w.q.! E Z Z E Z Z Z ) P.' S 9 c u X X X X X X X X X X X X X ",
"X X X X X X X $ m 5 _ `.'.~.G.^ Z Z ^ G.J.) Q u.B.V.V.V.V.V.V.V.V.V.s.9.w.E Z Z Z E E E ~ ) C.Z.R 9 6 u X X X X X X X X X X X X ",
"X X X X X X X M m S T..X{.r.C Z Z Z Q ! q.q.t.N.m.M.M.M.M.M.M.M.M.m.b.f.3.q.q.q.! E Z E Z Z ) P.Z.S 9 c & X X X X X X X X X X X ",
"X X X X X X c k ' ).`.~.L.~ Z Z C C ! u.B.B.B.x.b.b.b.b.b.b.b.b.b.b.v.z.s.h.h.9.e.Q C Z Z Z ~ ) ] ' R l 7 $ X X X X X X X X X X ",
"X X X X X X 6 3 R.+X|.r.C Z Q ! q.! t.B.M.M.M.b.c.z.c.c.c.c.c.c.c.c.c.c.c.c.c.g.8.q.! ! ! Q Z Z ) I.A.z = & X X X X X X X X X X ",
"X X X X X X 6 3 R.@X|.) C C q.i.N.N.B.x.b.b.b.v.c.z.z.z.z.z.z.z.z.c.c.c.c.c.c.c.d.9.9.8.<.! C Z ) I.D.z = % X X X X X X X X X X ",
"X X X X X X 6 3 R.+X|.r.Q ! u.V.M.M.m.v.c.c.c.c.c.c.c.c.c.c.c.c.c.c.c.c.c.c.c.c.z.z.c.z.7.w.Q Q ) I.A.z = > X X X X X X X X X X ",
"X X X X X X 6 3 R.+X Xu.<.i.B.n.m.m.b.v.c.z.z.c.c.c.c.c.c.c.c.c.c.c.c.c.c.c.c.c.c.c.c.c.f.9.<.0.! I.A.z = & X X X X X X X X X X ",
"X X X X X X 6 3 T.+XXXp.s.n.m.v.c.c.c.c.c.c.c.c.c.c.c.c.c.c.c.c.c.c.c.c.c.c.c.c.c.c.c.c.z.g.h.,.0.I.A.z = % X X X X X X X X X X ",
"X X X X X X 6 ; [ .X}.p.h.x.x.z.c.c.c.c.c.c.c.c.c.c.c.c.c.c.c.c.c.c.c.c.c.c.c.c.c.c.c.c.z.f.7.,.0.W.D.z = & X X X X X X X X X X ",
"X X X X X X 7 : _ ).^.p.6.7.s.g.z.z.z.z.c.c.c.c.c.c.c.c.c.c.c.c.c.c.c.c.c.c.c.c.z.z.c.z.f.h.3.>.q.I.Z.z : $ X X X X X X X X X X ",
"X X X X X X $ j D ' L.a.p.9.7.s.d.d.f.g.c.c.c.c.c.c.c.c.c.c.c.c.c.c.c.c.c.c.c.c.g.d.d.d.h.3.e.r./ _ Y n < @ X X X X X X X X X X ",
"X X X @ @ X X p c 9 _ /.^.p.2.7.7.7.h.f.z.c.c.c.c.c.c.c.c.c.c.c.c.c.c.c.c.c.c.z.d.h.7.7.3.>.q.L.Z.x 5 p X X X X X X X X X X X X ",
"X X X X X X X $ 8   Y (.[.p.2.6.6.6.7.s.d.f.f.g.c.c.c.c.c.c.c.c.c.c.c.z.g.f.f.d.h.7.6.6.1.:.! W.Z.9 = & X X X X X X X X X X X X ",
"X X X X X X X X 8 = Y ).^.p.2.6.6.6.7.7.7.7.h.d.z.c.c.c.c.c.c.c.c.c.c.g.s.h.7.7.7.6.7.6.,.:.P I.Z.9 = $ X X X X X X X X X X X X ",
"X X X X X X X X > 6 D S.!.a.p.9.2.6.6.6.6.6.7.s.f.f.f.f.f.f.f.f.f.f.f.d.h.6.6.6.7.6.3.1.>.P ^ ` R l < X X X X X X X X X X X X X ",
"X X X X X X X X X u m l _ /.^.p.2.2.6.6.6.6.6.7.h.h.h.h.h.h.h.h.h.h.h.h.7.6.6.6.7.6.,.:.P H.` x 9 > X X X X X X X X X X X X X X ",
"X X X X X X X X X X u 5 S S.~.a.p.9.6.6.6.6.6.6.6.6.6.6.6.6.6.6.6.6.6.6.6.7.7.6.3.1.>.P ^ ' R 9 % X X X X X X X X X X X X X X X ",
"X X X X X X X X X X X & m n _ !.^.p.2.2.6.6.6.6.6.6.6.6.6.6.6.6.6.6.6.6.7.7.7.6.,.B q.] W x 9 % X X X X X X X X X X X X X X X X ",
"X X X X X X X X X X X X $ 5 n S.~.a.8.6.6.2.4.6.6.6.6.6.6.6.6.6.6.7.7.6.3.3.3.1.>.V ^ Z.R 9 % X X X X X X X X X X X X X X X X X ",
"X X X X X X X X X X X X X $ m S T H.!.5.2.2.2.7.7.7.7.7.7.7.7.7.7.7.7.3.,.:.:.:.q.y._ S k & X X X X X X X X X X X X X X X X X X ",
"X X X X X X X X X X X X X X $ 5 9 W K.u.8.8.8.8.3.3.3.3.3.3.3.3.3.3.3.1.:.V N V / A.Y 5 $ X X X X X X X X X X X X X X X X X X X ",
"X X X X X X X X X X X X X X X $ c x Y y.Y.~.Y.u.,.,.,.,.,.>.:.:.:.:.:.:.q.y.y./ _ S l & X X X X X X X X X X X X X X X X X X X X ",
"X X X X X X X X X X X X X X X X $ 6 9 _ T.E.T.r.0.0.0.0.0.P V N N N N V / T.E.S.G 5 > X X X X X X X X X X X X X X X X X X X X X ",
"X X X X X X X X X X X X X X X X X & j n G G G ` y.J.J.J.J.r.y./ / / / / T G G G n < $ X X X X X X X X X X X X X X X X X X X X X ",
"X X X X X X X X X X X X X X X X X X $ 8 ;   3 Y T.E.E.E.E.E.E.T.T.E.E.A.S - = : 4 @ X X X X X X X X X X X X X X X X X X X X X X ",
"X X X X X X X X X X X X X X X X X X X $ 4 6 8 n Y Y H Y Y Y Y Y Y Y Y F n 7 < % $ X X X X X X X X X X X X X X X X X X X X X X X ",
"X X X X X X X X X X X X X X X X X X X X X X & c 3 ; ; ; ; ; ; ; ; ; ; 5 u X X X X X X X X X X X X X X X X X X X X X X X X X X X ",
"X X X X X X X X X X X X X X X X X X X X X X X $ , 5 6 1 1 1 , , , , , > $ X X X X X X X X X X X X X X X X X X X X X X X X X X X ",
"X X X X X X X X X X X X X X X X X X X X X X X X X X X X X X X X X X X X X X X X X X X X X X X X X X X X X X X X X X X X X X X X ",
"X X X X X X X X X X X X X X X X X X X X X X X X X X X X X X X X X X X X X X X X X X X X X X X X X X X X X X X X X X X X X X X X ",
"X X X X X X X X X X X X X X X X X X X X X X X X X X X X X X X X X X X X X X X X X X X X X X X X X X X X X X X X X X X X X X X X ",
"X X X X X X X X X X X X X X X X X X X X X X X X X X X X X X X X X X X X X X X X X X X X X X X X X X X X X X X X X X X X X X X X "
};
